<?xml version="1.0" encoding="iso-8859-1"?>
<!-- Generator: Adobe Illustrator 19.0.0, SVG Export Plug-In . SVG Version: 6.00 Build 0)  -->
<svg version="1.1" id="Capa_1" xmlns="http://www.w3.org/2000/svg" xmlns:xlink="http://www.w3.org/1999/xlink" x="0px" y="0px"
	 viewBox="0 0 512 512" style="enable-background:new 0 0 512 512;" xml:space="preserve">
<path style="fill:#00B8FA;" d="M400.465,120.564c-16.544,0-32.244,3.606-46.364,10.069c-16.448-22.217-42.842-36.625-72.607-36.625
	c-8.858,0-17.408,1.296-25.494,3.677l-90,155.727l90,155.727c9.996-8.088,18.566-17.868,25.274-28.905
	c9.973,3.794,20.783,5.89,32.087,5.89c32.507,0,60.991-17.186,76.891-42.96c3.364,0.306,6.769,0.47,10.213,0.47
	C462.064,343.635,512,293.699,512,232.1C512,170.499,462.064,120.564,400.465,120.564z"/>
<path style="fill:#5CD4FF;" d="M225.165,113.758c-20.369-21.946-49.458-35.684-81.762-35.684
	c-61.599,0-111.535,49.936-111.535,111.535c0,11.63,1.782,22.844,5.085,33.385C14.552,239.424,0,265.924,0,295.834
	c0,49.866,40.425,90.291,90.291,90.291c1.341,0,2.671-0.043,3.997-0.101c20.148,28.95,53.66,47.902,91.604,47.902
	c26.561,0,50.952-9.285,70.108-24.786V97.684C244.632,101.031,234.19,106.542,225.165,113.758z"/>
<g>
</g>
<g>
</g>
<g>
</g>
<g>
</g>
<g>
</g>
<g>
</g>
<g>
</g>
<g>
</g>
<g>
</g>
<g>
</g>
<g>
</g>
<g>
</g>
<g>
</g>
<g>
</g>
<g>
</g>
</svg>
