<svg enable-background="new 0 0 36 36" height="512" viewBox="0 0 36 36" width="512" xmlns="http://www.w3.org/2000/svg"><g id="bg"><g><path d="m34.904 20.355c-3.782-5.791-3.38-11.727-5.203-14.518s-7.256-7.603-20.093.782-9.572 17.5-7.566 20.569c9.388 14.372 39.561 3.423 32.862-6.833z" fill="#efefef"/></g></g><g id="color"><g><circle cx="18" cy="18" fill="#f3f3f1" r="11.25"/></g><g><path d="m9 18c0-5.833 4.44-10.629 10.125-11.193-.37-.037-.745-.057-1.125-.057-6.213 0-11.25 5.037-11.25 11.25s5.037 11.25 11.25 11.25c.38 0 .755-.02 1.125-.057-5.685-.564-10.125-5.36-10.125-11.193z" fill="#d5dbe1"/></g><g><g><path d="m4.555 25.967h1v2h-1z" fill="#a4afc1" transform="matrix(.707 -.707 .707 .707 -17.588 11.473)"/></g><g><path d="m8.621 30.033h1v2h-1z" fill="#a4afc1" transform="matrix(.707 -.707 .707 .707 -19.272 15.539)"/></g><g><path d="m3.878 30.533h2v1h-2z" fill="#a4afc1" transform="matrix(.707 -.707 .707 .707 -20.515 12.539)"/></g></g><g><path d="m9 6.467c-.827 0-1.5-.673-1.5-1.5s.673-1.5 1.5-1.5 1.5.673 1.5 1.5-.673 1.5-1.5 1.5zm0-2c-.276 0-.5.224-.5.5s.224.5.5.5.5-.224.5-.5-.224-.5-.5-.5z" fill="#a4afc1"/></g></g><g id="regular"><g><path d="m18 30c-6.617 0-12-5.383-12-12s5.383-12 12-12 12 5.383 12 12-5.383 12-12 12zm0-22.5c-5.79 0-10.5 4.71-10.5 10.5s4.71 10.5 10.5 10.5 10.5-4.71 10.5-10.5-4.71-10.5-10.5-10.5z"/></g><g><path d="m17.25 11.75h1.5v12.5h-1.5z"/></g><g><path d="m18 25c-.192 0-.384-.073-.53-.22l-4-4 1.061-1.061 3.47 3.47 3.47-3.47 1.061 1.061-4 4c-.148.147-.34.22-.532.22z"/></g></g></svg>