<svg enable-background="new 0 0 36 36" height="512" viewBox="0 0 36 36" width="512" xmlns="http://www.w3.org/2000/svg"><g id="bg"><g><path d="m27.417 3.914c-6.915.129-11.732-3.365-15.064-3.302s-10.296 2.109-10.009 17.44 9.744 17.404 13.41 17.336c17.163-.321 23.911-31.703 11.663-31.474z" fill="#efefef"/></g></g><g id="color"><g><circle cx="18" cy="18" fill="#f3f3f1" r="11.25"/></g><g><path d="m9 18c0-5.833 4.44-10.629 10.125-11.193-.37-.037-.745-.057-1.125-.057-6.213 0-11.25 5.037-11.25 11.25s5.037 11.25 11.25 11.25c.38 0 .755-.02 1.125-.057-5.685-.564-10.125-5.36-10.125-11.193z" fill="#d5dbe1"/></g><g><g><path d="m4.555 3.967h1v2h-1z" fill="#a4afc1" transform="matrix(.707 -.707 .707 .707 -2.031 5.03)"/></g><g><path d="m3.878 8.533h2v1h-2z" fill="#a4afc1" transform="matrix(.707 -.707 .707 .707 -4.958 6.095)"/></g><g><path d="m7.944 4.467h2v1h-2z" fill="#a4afc1" transform="matrix(.707 -.707 .707 .707 -.892 7.78)"/></g></g><g><path d="m31.25 26.25c-.827 0-1.5-.673-1.5-1.5s.673-1.5 1.5-1.5 1.5.673 1.5 1.5-.673 1.5-1.5 1.5zm0-2c-.276 0-.5.224-.5.5s.224.5.5.5.5-.224.5-.5-.224-.5-.5-.5z" fill="#a4afc1"/></g></g><g id="regular"><g><path d="m18 30c-6.617 0-12-5.383-12-12s5.383-12 12-12 12 5.383 12 12-5.383 12-12 12zm0-22.5c-5.79 0-10.5 4.71-10.5 10.5s4.71 10.5 10.5 10.5 10.5-4.71 10.5-10.5-4.71-10.5-10.5-10.5z"/></g><g><path d="m17.25 11.75h1.5v12.5h-1.5z"/></g><g><path d="m21.47 16.28-3.47-3.469-3.47 3.47-1.06-1.061 4-4c.293-.293.768-.293 1.061 0l4 4z"/></g></g></svg>