<svg enable-background="new 0 0 36 36" height="512" viewBox="0 0 36 36" width="512" xmlns="http://www.w3.org/2000/svg"><g id="bg"><g><path d="m34.928 20.674c-3.693-5.848-3.199-11.778-4.979-14.596s-7.138-7.714-20.103.473-9.84 17.35-7.882 20.45c9.166 14.516 39.504 4.031 32.964-6.327z" fill="#efefef"/></g></g><g id="color"><g><path d="m27.57 22.13-2.01-2.81-.18-.5c-.01-.22.05-.45.18-.64l2.01-2.81c.42-.58.07-1.41-.64-1.53l-3.33-.55-.07-.01c-.04-.01-.07-.02-.11-.03-.36-.1-.64-.41-.7-.78l-.37-2.26-.19-1.14c-.12-.72-.95-1.06-1.53-.64l-2.81 2.01c-.08.06-.18.1-.27.14-.2.06-.4.06-.6 0-.09-.04-.19-.08-.27-.14l-2.81-2.01c-.58-.42-1.41-.08-1.53.64l-.56 3.4c-.03.15-.09.3-.18.42-.05.08-.13.16-.21.21-.12.09-.27.15-.42.18l-3.4.56c-.25.04-.45.17-.6.35-.07.08-.12.18-.16.29-.06.16-.08.32-.05.48.02.1.05.19.09.28.02.04.05.09.08.13l.71.99 1.3 1.82c.24.34.24.8 0 1.14l-2.01 2.81c-.42.58-.08 1.41.64 1.53l3.4.56h.01l.49.24c.16.14.27.34.31.56l.56 3.41c.12.72.94 1.06 1.54.64l2.8-2.01c.03-.02.07-.04.1-.06.33-.18.73-.16 1.04.06l1.84 1.32.02.01.95.68c.04.03.09.06.13.08.09.04.18.07.28.09.16.03.32.01.48-.05.11-.04.21-.09.29-.16.18-.15.31-.35.35-.6l.56-3.4c.07-.42.39-.74.81-.81l3.4-.56c.72-.12 1.06-.95.64-1.53z" fill="#2fdf84"/></g><g><g><path d="m14.59 28.43-.56-3.41c-.04-.22-.15-.42-.31-.56l-.49-.24h-.01l-3.4-.56c-.72-.12-1.06-.95-.64-1.53l2.01-2.81c.24-.34.24-.8 0-1.14l-1.3-1.82-.71-.99c-.03-.04-.06-.09-.08-.13-.04-.09-.07-.18-.09-.28-.03-.16-.01-.32.05-.48.04-.11.09-.21.16-.29.15-.18.35-.31.6-.35l3.4-.56c.15-.03.3-.09.42-.18.08-.05.16-.13.21-.21.09-.12.15-.27.18-.42l.56-3.4c.006-.037.021-.068.031-.103l-.751-.537c-.58-.42-1.41-.08-1.53.64l-.56 3.4c-.03.15-.09.3-.18.42-.05.08-.13.16-.21.21-.12.09-.27.15-.42.18l-3.4.56c-.25.04-.45.17-.6.35-.07.08-.12.18-.16.29-.06.16-.08.32-.05.48.02.1.05.19.09.28.02.04.05.09.08.13l.71.99 1.3 1.82c.24.34.24.8 0 1.14l-2.01 2.81c-.42.58-.08 1.41.64 1.53l3.4.56h.01l.49.24c.16.14.27.34.31.56l.56 3.41c.12.72.94 1.06 1.54.64l.742-.533c-.01-.036-.026-.069-.032-.107z" fill="#00b871"/></g><g><path d="m21.93 28.39-.02-.01-1.84-1.32c-.31-.22-.71-.24-1.04-.06-.03.02-.07.04-.1.06l-.555.398 1.285.922.02.01.95.68c.04.03.09.06.13.08.09.04.18.07.28.09.16.03.32.01.48-.05.11-.04.21-.09.29-.16.154-.128.258-.3.314-.501z" fill="#00b871"/></g></g><g><path d="m30 7.5c-.827 0-1.5-.673-1.5-1.5s.673-1.5 1.5-1.5 1.5.673 1.5 1.5-.673 1.5-1.5 1.5zm0-2c-.276 0-.5.225-.5.5s.224.5.5.5.5-.225.5-.5-.224-.5-.5-.5z" fill="#a4afc1"/></g></g><g id="regular"><g><path d="m21.189 30.001c-.354 0-.703-.11-1.002-.324l-2.803-2.012c-.073-.05-.195-.048-.281.009l-2.79 2.003c-.5.351-1.124.421-1.677.188-.55-.23-.937-.721-1.034-1.311l-.566-3.407c-.016-.094-.09-.168-.185-.184l-3.408-.566c-.589-.097-1.079-.483-1.31-1.034-.232-.554-.163-1.178.185-1.671l2.015-2.809c.05-.073.05-.194-.009-.281l-2.002-2.789c-.351-.488-.421-1.112-.191-1.668s.721-.945 1.313-1.043l3.407-.566c.094-.016.168-.09.184-.184l.566-3.408c.097-.589.483-1.079 1.034-1.31.553-.232 1.178-.163 1.671.185l2.808 2.016c.08.058.189.058.269-.001l2.801-2.011c.489-.35 1.113-.422 1.668-.19.556.23.945.721 1.043 1.312l.19 1.145-1.479.246-.19-1.146c-.016-.107-.092-.154-.136-.171s-.131-.04-.219.023l-2.802 2.012c-.604.432-1.413.431-2.016.001l-2.804-2.013c-.089-.064-.178-.043-.222-.023-.052.021-.117.068-.134.17l-.567 3.409c-.121.727-.69 1.297-1.417 1.418l-3.409.567c-.108.018-.154.093-.172.137-.019.044-.04.131.023.22l1.972 2.743c.457.667.457 1.468.049 2.062l-2.021 2.816c-.063.09-.042.178-.024.222.022.052.069.117.171.134l3.41.566c.727.121 1.296.691 1.417 1.418l.566 3.408c.017.104.083.15.134.172.043.018.131.04.227-.027l2.797-2.008c.609-.417 1.409-.417 2.004-.009l2.816 2.021c.087.063.174.042.219.023.043-.018.12-.064.137-.171l.567-3.409c.121-.727.69-1.297 1.417-1.418l3.409-.566c.103-.017.15-.082.172-.134.018-.044.04-.132-.027-.228l-2.008-2.797 1.219-.875 2.012 2.803c.351.499.42 1.123.188 1.677-.231.551-.721.938-1.311 1.034l-3.407.566c-.094.016-.168.09-.184.184l-.566 3.408c-.097.591-.487 1.081-1.042 1.312-.215.09-.441.134-.665.134z"/></g><g><path d="m18.25 21.5c-.192 0-.384-.073-.53-.22l-4.5-4.5 1.061-1.061 3.97 3.97 10.469-10.469 1.061 1.061-11 11c-.147.146-.339.219-.531.219z"/></g></g></svg>