<svg enable-background="new 0 0 36 36" height="512" viewBox="0 0 36 36" width="512" xmlns="http://www.w3.org/2000/svg"><g id="bg"><g><path d="m34.904 20.438c-3.782-5.791-3.38-11.727-5.203-14.518s-7.256-7.603-20.093.782-9.572 17.5-7.566 20.569c9.388 14.373 39.561 3.423 32.862-6.833z" fill="#efefef"/></g></g><g id="color"><g><path d="m26.25 27.25c0 1.105-.895 2-2 2h-15.5c-1.105 0-2-.895-2-2v-15.5c0-1.105.895-2 2-2h15.5c1.105 0 2 .895 2 2z" fill="#2fdf84"/></g><g><path d="m9 27.25v-15.5c0-1.105.895-2 2-2h-2.25c-1.105 0-2 .895-2 2v15.5c0 1.105.895 2 2 2h2.25c-1.105 0-2-.895-2-2z" fill="#00b871"/></g><g><g><path d="m30.516 3.644h2v1h-2z" fill="#a4afc1" transform="matrix(.707 -.707 .707 .707 6.301 23.499)"/></g><g><path d="m26.95 2.967h1v2h-1z" fill="#a4afc1" transform="matrix(.707 -.707 .707 .707 5.235 20.572)"/></g><g><path d="m31.016 7.033h1v2h-1z" fill="#a4afc1" transform="matrix(.707 -.707 .707 .707 3.551 24.638)"/></g></g><g><path d="m6 7.017c-.827 0-1.5-.673-1.5-1.5s.673-1.5 1.5-1.5 1.5.673 1.5 1.5-.673 1.5-1.5 1.5zm0-2c-.276 0-.5.225-.5.5s.224.5.5.5.5-.225.5-.5-.224-.5-.5-.5z" fill="#a4afc1"/></g></g><g id="regular"><g><path d="m24.25 30h-15.5c-1.517 0-2.75-1.233-2.75-2.75v-15.5c0-1.517 1.233-2.75 2.75-2.75h12.5v1.5h-12.5c-.689 0-1.25.561-1.25 1.25v15.5c0 .689.561 1.25 1.25 1.25h15.5c.689 0 1.25-.561 1.25-1.25v-8.5h1.5v8.5c0 1.517-1.233 2.75-2.75 2.75z"/></g><g><path d="m18.25 21.5c-.192 0-.384-.073-.53-.22l-4.5-4.5 1.061-1.061 3.97 3.97 10.469-10.469 1.061 1.061-11 11c-.147.146-.339.219-.531.219z"/></g></g></svg>