<svg enable-background="new 0 0 36 36" height="512" viewBox="0 0 36 36" width="512" xmlns="http://www.w3.org/2000/svg"><g id="bg"><g><path d="m8.114 5.647c-1.805 6.677-6.504 10.327-7.374 13.545s-.847 10.475 13.955 14.477 19.432-4.501 20.388-8.041c4.481-16.571-23.772-31.806-26.969-19.981z" fill="#efefef"/></g></g><g id="color"><g><path d="m22.75 18c0 .2-.06.4-.17.55l-5 7.25c-.18.27-.48.45-.83.45h-2.5c-.55 0-1-.45-1-1 0-.2.06-.4.17-.55l4.63-6.7-4.63-6.7c-.11-.15-.17-.35-.17-.55 0-.55.45-1 1-1h2.5c.35 0 .65.18.83.45l5 7.25c.11.15.17.35.17.55z" fill="#2fdf84"/></g><g><path d="m15.5 25.25c0-.2.06-.4.17-.55l4.149-6.004c.289-.419.289-.973 0-1.392l-4.149-6.004c-.11-.15-.17-.35-.17-.55 0-.55.45-1 1-1h-2.25c-.55 0-1 .45-1 1 0 .2.06.4.17.55l4.63 6.7-4.63 6.7c-.11.15-.17.35-.17.55 0 .55.45 1 1 1h2.25c-.55 0-1-.45-1-1z" fill="#00b871"/></g><g><path d="m19.5 31.5c-.827 0-1.5-.673-1.5-1.5s.673-1.5 1.5-1.5 1.5.673 1.5 1.5-.673 1.5-1.5 1.5zm0-2c-.276 0-.5.225-.5.5s.224.5.5.5.5-.225.5-.5-.224-.5-.5-.5z" fill="#a4afc1"/></g><g><g><path d="m12.033 4.306h2v1h-2z" fill="#a4afc1" transform="matrix(.707 -.707 .707 .707 .419 10.623)"/></g><g><path d="m7.967 8.371h2v1h-2z" fill="#a4afc1" transform="matrix(.707 -.707 .707 .707 -3.646 8.939)"/></g><g><path d="m8.467 3.629h1v2h-1z" fill="#a4afc1" transform="matrix(.707 -.707 .707 .707 -.646 7.698)"/></g></g></g><g id="regular"><g><path d="m16.75 27h-2.5c-.965 0-1.75-.785-1.75-1.75 0-.364.112-.717.316-.994l4.322-6.256-4.335-6.273c-.19-.26-.303-.612-.303-.977 0-.965.785-1.75 1.75-1.75h2.5c.583 0 1.127.293 1.454.784l4.993 7.24c.191.259.303.612.303.976s-.112.717-.316.994l-4.987 7.231c-.32.482-.864.775-1.447.775zm-2.5-16.5c-.136 0-.25.114-.25.25 0 .053.017.095.024.105l4.643 6.718c.177.257.177.597 0 .854l-4.63 6.7c-.02.028-.037.07-.037.123 0 .136.114.25.25.25h2.5c.112 0 .177-.072.206-.116l5.007-7.26c.02-.029.037-.071.037-.124s-.017-.095-.024-.105l-5.013-7.269c-.036-.054-.101-.126-.213-.126z"/></g></g></svg>