<svg enable-background="new 0 0 36 36" height="512" viewBox="0 0 36 36" width="512" xmlns="http://www.w3.org/2000/svg"><g id="bg"><g><path d="m34.904 20.355c-3.782-5.791-3.38-11.727-5.203-14.518s-7.256-7.603-20.093.782-9.572 17.5-7.566 20.569c9.388 14.372 39.561 3.423 32.862-6.833z" fill="#efefef"/></g></g><g id="color"><g><circle cx="18" cy="18" fill="#2fdf84" r="11.25"/></g><g><path d="m9 18c0-5.833 4.44-10.629 10.125-11.193-.37-.037-.745-.057-1.125-.057-6.213 0-11.25 5.037-11.25 11.25s5.037 11.25 11.25 11.25c.38 0 .755-.02 1.125-.057-5.685-.564-10.125-5.36-10.125-11.193z" fill="#00b871"/></g><g><g><path d="m4.306 26.217h1v2h-1z" fill="#a4afc1" transform="matrix(.707 -.707 .707 .707 -17.835 11.366)"/></g><g><path d="m8.371 30.283h1v2h-1z" fill="#a4afc1" transform="matrix(.707 -.707 .707 .707 -19.519 15.431)"/></g><g><path d="m3.629 30.783h2v1h-2z" fill="#a4afc1" transform="matrix(.707 -.707 .707 .707 -20.765 12.436)"/></g></g></g><g id="regular"><g><path d="m17.25 9.5h1.5v2h-1.5z"/></g><g><path d="m17.25 24.5h1.5v2h-1.5z"/></g><g><path d="m10.755 13.25h1.5v2h-1.5z" transform="matrix(.5 -.866 .866 .5 -6.588 17.09)"/></g><g><path d="m23.745 20.75h1.5v2h-1.5z" transform="matrix(.5 -.866 .866 .5 -6.588 32.091)"/></g><g><path d="m10.505 21h2v1.5h-2z" transform="matrix(.866 -.5 .5 .866 -9.335 8.668)"/></g><g><path d="m23.495 13.5h2v1.5h-2z" transform="matrix(.866 -.5 .5 .866 -3.843 14.159)"/></g><g><path d="m18 30c-6.617 0-12-5.383-12-12s5.383-12 12-12 12 5.383 12 12-5.383 12-12 12zm0-22.5c-5.79 0-10.5 4.71-10.5 10.5s4.71 10.5 10.5 10.5 10.5-4.71 10.5-10.5-4.71-10.5-10.5-10.5z"/></g></g></svg>