<svg enable-background="new 0 0 36 36" height="512" viewBox="0 0 36 36" width="512" xmlns="http://www.w3.org/2000/svg"><g id="bg"><g><path d="m8.377 4.25c6.917 0 11.667-3.583 15-3.583s10.333 1.916 10.333 17.25-9.417 17.583-13.083 17.583c-17.167 0-24.5-31.25-12.25-31.25z" fill="#efefef"/></g></g><g id="color"><g><path d="m25.78 23.3c.39.39.39 1.03 0 1.42l-1.06 1.06c-.39.39-1.03.39-1.42 0l-5.3-5.3-5.3 5.3c-.39.39-1.03.39-1.42 0l-1.06-1.06c-.39-.39-.39-1.03 0-1.42l5.3-5.3-5.3-5.3c-.39-.39-.39-1.03 0-1.42l1.06-1.06c.39-.39 1.03-.39 1.42 0l5.3 5.3 5.3-5.3c.39-.39 1.03-.39 1.42 0l1.06 1.06c.39.39.39 1.03 0 1.42l-5.3 5.3z" fill="#2fdf84"/></g><g><g><path d="m12.72 24.72c-.39-.39-.39-1.029 0-1.42l4.17-4.17c.624-.624.624-1.636 0-2.26l-4.17-4.17c-.39-.39-.391-1.029 0-1.42l.52-.52-.54-.54c-.39-.391-1.029-.391-1.42 0l-1.06 1.06c-.39.39-.39 1.029 0 1.42l5.3 5.3-5.3 5.3c-.39.39-.391 1.029 0 1.42l1.06 1.06c.39.39 1.029.39 1.42 0l.54-.54z" fill="#00b871"/></g></g><g><path d="m23 6.5c-.827 0-1.5-.673-1.5-1.5s.673-1.5 1.5-1.5 1.5.673 1.5 1.5-.673 1.5-1.5 1.5zm0-2c-.275 0-.5.225-.5.5s.225.5.5.5.5-.225.5-.5-.225-.5-.5-.5z" fill="#a4afc1"/></g></g><g id="regular"><g><path d="m24.01 26.823c-.448 0-.897-.171-1.239-.512l-4.771-4.77-4.77 4.77c-.686.684-1.797.684-2.48 0l-1.061-1.061c-.683-.683-.684-1.796-.001-2.479l4.771-4.771-4.77-4.77c-.684-.685-.683-1.798 0-2.48l1.061-1.061c.684-.683 1.796-.684 2.479-.001l4.771 4.771 4.77-4.77c.686-.684 1.797-.684 2.48 0l1.061 1.061c.683.683.684 1.796.001 2.479l-4.771 4.771 4.77 4.77s.001 0 .001.001c.683.684.682 1.797-.001 2.479l-1.061 1.061c-.342.341-.791.512-1.24.512zm-6.01-7.093c.192 0 .384.073.53.22l5.3 5.3c.098.098.262.098.359 0l1.061-1.061c.098-.098.097-.262-.001-.36l-5.299-5.299c-.293-.293-.293-.768 0-1.061l5.3-5.3c.097-.098.098-.262 0-.359l-1.061-1.061c-.098-.098-.261-.097-.36.001l-5.299 5.3c-.293.293-.768.293-1.061 0l-5.3-5.3c-.098-.098-.262-.098-.359 0l-1.061 1.061c-.098.098-.097.262.001.36l5.299 5.299c.293.293.293.768 0 1.061l-5.3 5.3c-.097.098-.098.262 0 .359l1.061 1.061c.098.098.261.097.36-.001l5.299-5.299c.147-.147.339-.221.531-.221z"/></g></g></svg>