<svg enable-background="new 0 0 36 36" height="512" viewBox="0 0 36 36" width="512" xmlns="http://www.w3.org/2000/svg"><g id="bg"><g><path d="m7.678 5.564c-1.805 6.677-6.504 10.327-7.374 13.545s-.847 10.475 13.955 14.477 19.432-4.501 20.388-8.041c4.481-16.572-23.772-31.807-26.969-19.981z" fill="#efefef"/></g></g><g id="color"><g><path d="m14.25 26c0 .576-.15 1.116-.412 1.585-.556.993-1.619 1.665-2.838 1.665-1.795 0-3.25-1.455-3.25-3.25s1.455-3.25 3.25-3.25 3.25 1.455 3.25 3.25z" fill="#2fdf84"/></g><g><path d="m21.75 26c0 .576.15 1.116.412 1.585.556.993 1.619 1.665 2.838 1.665 1.795 0 3.25-1.455 3.25-3.25s-1.455-3.25-3.25-3.25-3.25 1.455-3.25 3.25z" fill="#2fdf84"/></g><g><path d="m21.75 26c0 .576.15 1.116.412 1.585.556.993 1.619 1.665 2.838 1.665 1.795 0 3.25-1.455 3.25-3.25s-1.455-3.25-3.25-3.25-3.25 1.455-3.25 3.25z" fill="#2fdf84"/></g><g><path d="m10 26c0-1.398.887-2.579 2.125-3.038-.352-.13-.728-.212-1.125-.212-1.795 0-3.25 1.455-3.25 3.25s1.455 3.25 3.25 3.25c.399 0 .779-.078 1.132-.21-1.242-.457-2.132-1.64-2.132-3.04z" fill="#00b871"/></g><g><path d="m24.412 27.585c-.262-.469-.412-1.009-.412-1.585 0-1.398.887-2.579 2.125-3.038-.352-.13-.728-.212-1.125-.212-1.795 0-3.25 1.455-3.25 3.25 0 .576.15 1.116.412 1.585.556.993 1.619 1.665 2.838 1.665.395 0 .768-.081 1.118-.21-.726-.27-1.332-.787-1.706-1.455z" fill="#00b871"/></g><g><g><path d="m3.556 14.712h1v2h-1z" fill="#a4afc1" transform="matrix(.707 -.707 .707 .707 -9.921 7.467)"/></g><g><path d="m7.621 18.778h1v2h-1z" fill="#a4afc1" transform="matrix(.707 -.707 .707 .707 -11.606 11.535)"/></g><g><path d="m2.879 19.278h2v1h-2z" fill="#a4afc1" transform="matrix(.707 -.707 .707 .707 -12.849 8.536)"/></g><g><path d="m6.944 15.212h2v1h-2z" fill="#a4afc1" transform="matrix(.707 -.707 .707 .707 -8.783 10.22)"/></g></g><g><path d="m30.5 7.25c-.827 0-1.5-.673-1.5-1.5s.673-1.5 1.5-1.5 1.5.673 1.5 1.5-.673 1.5-1.5 1.5zm0-2c-.275 0-.5.224-.5.5s.225.5.5.5.5-.224.5-.5-.225-.5-.5-.5z" fill="#a4afc1"/></g></g><g id="regular"><g><path d="m11 30c-2.206 0-4-1.794-4-4s1.794-4 4-4 4 1.794 4 4c0 .684-.176 1.359-.508 1.952-.706 1.263-2.045 2.048-3.492 2.048zm0-6.5c-1.379 0-2.5 1.122-2.5 2.5s1.121 2.5 2.5 2.5c.905 0 1.741-.491 2.184-1.281.207-.37.316-.791.316-1.219 0-1.378-1.121-2.5-2.5-2.5z"/></g><g><path d="m7.731 16.418h23.877v1.5h-23.877z" transform="matrix(.488 -.873 .873 .488 -4.918 25.946)"/></g><g><path d="m25 30c-1.447 0-2.786-.785-3.492-2.049-.332-.592-.508-1.267-.508-1.951 0-2.206 1.794-4 4-4s4 1.794 4 4-1.794 4-4 4zm0-6.5c-1.379 0-2.5 1.122-2.5 2.5 0 .428.109.849.316 1.218.443.791 1.279 1.282 2.184 1.282 1.379 0 2.5-1.122 2.5-2.5s-1.121-2.5-2.5-2.5z"/></g><g><path d="m15.581 5.229h1.5v23.877h-1.5z" transform="matrix(.873 -.488 .488 .873 -6.305 10.164)"/></g></g></svg>