<svg enable-background="new 0 0 36 36" height="512" viewBox="0 0 36 36" width="512" xmlns="http://www.w3.org/2000/svg"><g id="bg"><g><path d="m1.003 14.311c3.253 6.104 2.324 11.981 3.891 14.923s6.551 8.218 20.083 1.008 11.09-16.579 9.365-19.815c-8.072-15.151-39.1-6.927-33.339 3.884z" fill="#efefef"/></g></g><g id="color"><g><path d="m15.25 13.25h-7.5c-.552 0-1-.448-1-1v-4.5c0-.552.448-1 1-1h7.5c.552 0 1 .448 1 1v4.5c0 .552-.448 1-1 1z" fill="#2fdf84"/></g><g><path d="m15.25 29.25h-7.5c-.552 0-1-.448-1-1v-10.5c0-.552.448-1 1-1h7.5c.552 0 1 .448 1 1v10.5c0 .552-.448 1-1 1z" fill="#f3f3f1"/></g><g><path d="m28.25 22.75h-7.5c-.552 0-1 .448-1 1v4.5c0 .552.448 1 1 1h7.5c.552 0 1-.448 1-1v-4.5c0-.552-.448-1-1-1z" fill="#2fdf84"/></g><g><path d="m9 12.25v-4.5c0-.552.448-1 1-1h-2.25c-.552 0-1 .448-1 1v4.5c0 .552.448 1 1 1h2.25c-.552 0-1-.448-1-1z" fill="#00b871"/></g><g><path d="m22 28.25v-4.5c0-.552.448-1 1-1h-2.25c-.552 0-1 .448-1 1v4.5c0 .552.448 1 1 1h2.25c-.552 0-1-.448-1-1z" fill="#00b871"/></g><g><path d="m28.25 6.75h-7.5c-.552 0-1 .448-1 1v10.5c0 .552.448 1 1 1h7.5c.552 0 1-.448 1-1v-10.5c0-.552-.448-1-1-1z" fill="#f3f3f1"/></g><g><path d="m15.25 29.25h-7.5c-.552 0-1-.448-1-1v-10.5c0-.552.448-1 1-1h7.5c.552 0 1 .448 1 1v10.5c0 .552-.448 1-1 1z" fill="#f3f3f1"/></g><g><path d="m9 28.25v-10.5c0-.552.448-1 1-1h-2.25c-.552 0-1 .448-1 1v10.5c0 .552.448 1 1 1h2.25c-.552 0-1-.448-1-1z" fill="#d5dbe1"/></g><g><path d="m22 18.25v-10.5c0-.552.448-1 1-1h-2.25c-.552 0-1 .448-1 1v10.5c0 .552.448 1 1 1h2.25c-.552 0-1-.448-1-1z" fill="#d5dbe1"/></g><g><g><path d="m3.806 26.629h1v2h-1z" fill="#a4afc1" transform="matrix(.707 -.707 .707 .707 -18.273 11.133)"/></g><g><path d="m7.871 30.695h1v2h-1z" fill="#a4afc1" transform="matrix(.707 -.707 .707 .707 -19.957 15.198)"/></g><g><path d="m3.129 31.195h2v1h-2z" fill="#a4afc1" transform="matrix(.707 -.707 .707 .707 -21.202 12.203)"/></g></g><g><path d="m30.944 6.467c-.827 0-1.5-.673-1.5-1.5s.673-1.5 1.5-1.5 1.5.673 1.5 1.5-.673 1.5-1.5 1.5zm0-2c-.275 0-.5.224-.5.5s.225.5.5.5.5-.224.5-.5-.224-.5-.5-.5z" fill="#a4afc1"/></g></g><g id="regular"><g><path d="m15.25 14h-7.5c-.965 0-1.75-.785-1.75-1.75v-4.5c0-.965.785-1.75 1.75-1.75h7.5c.965 0 1.75.785 1.75 1.75v4.5c0 .965-.785 1.75-1.75 1.75zm-7.5-6.5c-.138 0-.25.112-.25.25v4.5c0 .138.112.25.25.25h7.5c.138 0 .25-.112.25-.25v-4.5c0-.138-.112-.25-.25-.25z"/></g><g><path d="m15.25 30h-7.5c-.965 0-1.75-.785-1.75-1.75v-10.5c0-.965.785-1.75 1.75-1.75h7.5c.965 0 1.75.785 1.75 1.75v10.5c0 .965-.785 1.75-1.75 1.75zm-7.5-12.5c-.138 0-.25.112-.25.25v10.5c0 .138.112.25.25.25h7.5c.138 0 .25-.112.25-.25v-10.5c0-.138-.112-.25-.25-.25z"/></g><g><path d="m28.25 30h-7.5c-.965 0-1.75-.785-1.75-1.75v-4.5c0-.965.785-1.75 1.75-1.75h7.5c.965 0 1.75.785 1.75 1.75v4.5c0 .965-.785 1.75-1.75 1.75zm-7.5-6.5c-.138 0-.25.112-.25.25v4.5c0 .138.112.25.25.25h7.5c.138 0 .25-.112.25-.25v-4.5c0-.138-.112-.25-.25-.25z"/></g><g><path d="m28.25 20h-7.5c-.965 0-1.75-.785-1.75-1.75v-10.5c0-.965.785-1.75 1.75-1.75h7.5c.965 0 1.75.785 1.75 1.75v1.188h-1.5v-1.188c0-.138-.112-.25-.25-.25h-7.5c-.138 0-.25.112-.25.25v10.5c0 .138.112.25.25.25h7.5c.138 0 .25-.112.25-.25v-7.312h1.5v7.312c0 .965-.785 1.75-1.75 1.75z"/></g></g></svg>