<svg enable-background="new 0 0 36 36" height="512" viewBox="0 0 36 36" width="512" xmlns="http://www.w3.org/2000/svg"><g id="bg"><g><path d="m11.532 34.802c6.645-1.919 12.203.206 15.405-.719s9.396-4.708 5.142-19.44-13.924-14.28-17.447-13.263c-16.493 4.763-14.869 36.821-3.1 33.422z" fill="#efefef"/></g></g><g id="color"><g><path d="m27.25 6.75h-18.5c-1.105 0-2 .895-2 2v18.5c0 1.105.895 2 2 2h18.5c1.105 0 2-.895 2-2v-18.5c0-1.105-.895-2-2-2z" fill="#f3f3f1"/></g><g><path d="m9 27.25v-18.5c0-1.105.895-2 2-2h-2.25c-1.105 0-2 .895-2 2v18.5c0 1.105.895 2 2 2h2.25c-1.105 0-2-.895-2-2z" fill="#d5dbe1"/></g><g><path d="m15.25 14.25h-4.5c-.552 0-1-.448-1-1v-2.5c0-.552.448-1 1-1h4.5c.552 0 1 .448 1 1v2.5c0 .552-.448 1-1 1z" fill="#2fdf84"/></g><g><path d="m25.25 26.25h-4.5c-.552 0-1-.448-1-1v-2.5c0-.552.448-1 1-1h4.5c.552 0 1 .448 1 1v2.5c0 .552-.448 1-1 1z" fill="#2fdf84"/></g><g><path d="m25.25 18.25h-4.5c-.552 0-1-.448-1-1v-6.5c0-.552.448-1 1-1h4.5c.552 0 1 .448 1 1v6.5c0 .552-.448 1-1 1z" fill="#2fdf84"/></g><g><path d="m15.25 26.25h-4.5c-.552 0-1-.448-1-1v-6.5c0-.552.448-1 1-1h4.5c.552 0 1 .448 1 1v6.5c0 .552-.448 1-1 1z" fill="#2fdf84"/></g><g><path d="m12 13.25v-2.5c0-.552.448-1 1-1h-2.25c-.552 0-1 .448-1 1v2.5c0 .552.448 1 1 1h2.25c-.552 0-1-.448-1-1z" fill="#00b871"/></g><g><path d="m22 25.25v-2.5c0-.552.448-1 1-1h-2.25c-.552 0-1 .448-1 1v2.5c0 .552.448 1 1 1h2.25c-.552 0-1-.448-1-1z" fill="#00b871"/></g><g><path d="m22 17.25v-6.5c0-.552.448-1 1-1h-2.25c-.552 0-1 .448-1 1v6.5c0 .552.448 1 1 1h2.25c-.552 0-1-.448-1-1z" fill="#00b871"/></g><g><path d="m12 25.25v-6.5c0-.552.448-1 1-1h-2.25c-.552 0-1 .448-1 1v6.5c0 .552.448 1 1 1h2.25c-.552 0-1-.448-1-1z" fill="#00b871"/></g><g><path d="m4.879 6.5c-.827 0-1.5-.673-1.5-1.5s.673-1.5 1.5-1.5 1.5.673 1.5 1.5-.673 1.5-1.5 1.5zm0-2c-.275 0-.5.224-.5.5s.225.5.5.5.5-.224.5-.5-.225-.5-.5-.5z" fill="#a4afc1"/></g></g><g id="regular"><g><path d="m15.25 15h-4.5c-.965 0-1.75-.785-1.75-1.75v-2.5c0-.965.785-1.75 1.75-1.75h4.5c.965 0 1.75.785 1.75 1.75v2.5c0 .965-.785 1.75-1.75 1.75zm-4.5-4.5c-.138 0-.25.112-.25.25v2.5c0 .138.112.25.25.25h4.5c.138 0 .25-.112.25-.25v-2.5c0-.138-.112-.25-.25-.25z"/></g><g><path d="m25.25 27h-4.5c-.965 0-1.75-.785-1.75-1.75v-2.5c0-.965.785-1.75 1.75-1.75h4.5c.965 0 1.75.785 1.75 1.75v2.5c0 .965-.785 1.75-1.75 1.75zm-4.5-4.5c-.138 0-.25.112-.25.25v2.5c0 .138.112.25.25.25h4.5c.138 0 .25-.112.25-.25v-2.5c0-.138-.112-.25-.25-.25z"/></g><g><path d="m25.25 19h-4.5c-.965 0-1.75-.785-1.75-1.75v-6.5c0-.965.785-1.75 1.75-1.75h4.5c.965 0 1.75.785 1.75 1.75v2.25h-1.5v-2.25c0-.138-.112-.25-.25-.25h-4.5c-.138 0-.25.112-.25.25v6.5c0 .138.112.25.25.25h4.5c.138 0 .25-.112.25-.25v-2.25h1.5v2.25c0 .965-.785 1.75-1.75 1.75z"/></g><g><path d="m15.25 27h-4.5c-.965 0-1.75-.785-1.75-1.75v-6.5c0-.965.785-1.75 1.75-1.75h4.5c.965 0 1.75.785 1.75 1.75v6.5c0 .965-.785 1.75-1.75 1.75zm-4.5-8.5c-.138 0-.25.112-.25.25v6.5c0 .138.112.25.25.25h4.5c.138 0 .25-.112.25-.25v-6.5c0-.138-.112-.25-.25-.25z"/></g><g><path d="m27.25 30h-18.5c-1.517 0-2.75-1.233-2.75-2.75v-18.5c0-1.517 1.233-2.75 2.75-2.75h18.5c1.517 0 2.75 1.233 2.75 2.75v18.5c0 1.517-1.233 2.75-2.75 2.75zm-18.5-22.5c-.689 0-1.25.561-1.25 1.25v18.5c0 .689.561 1.25 1.25 1.25h18.5c.689 0 1.25-.561 1.25-1.25v-18.5c0-.689-.561-1.25-1.25-1.25z"/></g><g><path d="m2 28.5h32v1.5h-32z"/></g></g></svg>