<svg enable-background="new 0 0 36 36" height="512" viewBox="0 0 36 36" width="512" xmlns="http://www.w3.org/2000/svg"><g id="bg"><g><path d="m13.411 35.083c6.298-2.859 12.105-1.559 15.14-2.936 3.035-1.378 8.617-6.016 2.28-19.978s-15.841-12.121-19.18-10.606c-15.632 7.095-9.395 38.582 1.76 33.52z" fill="#efefef"/></g></g><g id="color"><g><path d="m23.635 8.76h-11.25l-5.625 9.25 5.625 9.25h11.25l5.625-9.25z" fill="#f3f3f1"/></g><g><path d="m14.635 8.76h-2.25l-5.625 9.25 5.625 9.25h2.25l-5.625-9.25z" fill="#d5dbe1"/></g><g><path d="m30 7.5c-.827 0-1.5-.673-1.5-1.5s.673-1.5 1.5-1.5 1.5.673 1.5 1.5-.673 1.5-1.5 1.5zm0-2c-.276 0-.5.225-.5.5s.224.5.5.5.5-.225.5-.5-.224-.5-.5-.5z" fill="#a4afc1"/></g></g><g id="regular"><g><path d="m12.75 17.25h10.5v1.5h-10.5z" transform="matrix(.707 -.707 .707 .707 -7.456 18)"/></g><g><path d="m17.25 12.75h1.5v10.5h-1.5z" transform="matrix(.707 -.707 .707 .707 -7.456 18.002)"/></g><g><path d="m23.635 28.01h-11.25c-.262 0-.505-.137-.641-.36l-5.625-9.25c-.146-.239-.146-.54 0-.779l5.625-9.25c.136-.224.379-.36.641-.36h11.25c.262 0 .505.137.641.36l5.625 9.25c.146.239.146.54 0 .779l-5.625 9.25c-.136.223-.379.36-.641.36zm-10.828-1.5h10.406l5.169-8.5-5.169-8.5h-10.406l-5.169 8.5z"/></g></g></svg>