<svg enable-background="new 0 0 36 36" height="512" viewBox="0 0 36 36" width="512" xmlns="http://www.w3.org/2000/svg"><g id="bg"><g><path d="m8.377 31.833c6.917 0 11.667 3.583 15 3.583s10.333-1.916 10.333-17.249-9.417-17.584-13.083-17.584c-17.167 0-24.5 31.25-12.25 31.25z" fill="#efefef"/></g></g><g id="color"><g><circle cx="18" cy="18" fill="#f3f3f1" r="11.25"/></g><g><path d="m9 18c0-5.833 4.44-10.629 10.125-11.193-.37-.037-.745-.057-1.125-.057-6.213 0-11.25 5.037-11.25 11.25s5.037 11.25 11.25 11.25c.38 0 .755-.02 1.125-.057-5.685-.564-10.125-5.36-10.125-11.193z" fill="#d5dbe1"/></g><g><circle cx="18" cy="18" fill="#2fdf84" r="4.25"/></g><g><path d="m16 18c0-1.955 1.328-3.585 3.125-4.08-.361-.099-.733-.17-1.125-.17-2.347 0-4.25 1.903-4.25 4.25s1.903 4.25 4.25 4.25c.392 0 .764-.07 1.125-.17-1.797-.495-3.125-2.125-3.125-4.08z" fill="#00b871"/></g><g><g><path d="m26.384 4.467h1v2h-1z" fill="#a4afc1" transform="matrix(.707 -.707 .707 .707 4.006 20.607)"/></g><g><path d="m30.45 8.533h1v2h-1z" fill="#a4afc1" transform="matrix(.707 -.707 .707 .707 2.322 24.672)"/></g><g><path d="m29.773 4.967h2v1h-2z" fill="#a4afc1" transform="matrix(.707 -.707 .707 .707 5.147 23.361)"/></g></g></g><g id="regular"><g><path d="m18 30c-6.617 0-12-5.383-12-12s5.383-12 12-12 12 5.383 12 12-5.383 12-12 12zm0-22.5c-5.79 0-10.5 4.71-10.5 10.5s4.71 10.5 10.5 10.5 10.5-4.71 10.5-10.5-4.71-10.5-10.5-10.5z"/></g><g><path d="m18 23c-2.757 0-5-2.243-5-5s2.243-5 5-5c2.011 0 3.818 1.196 4.604 3.047l-1.381.586c-.55-1.296-1.815-2.133-3.223-2.133-1.93 0-3.5 1.57-3.5 3.5s1.57 3.5 3.5 3.5 3.5-1.57 3.5-3.5h1.5c0 2.757-2.243 5-5 5z"/></g></g></svg>