<svg enable-background="new 0 0 36 36" height="512" viewBox="0 0 36 36" width="512" xmlns="http://www.w3.org/2000/svg"><g id="bg"><g><path d="m1.063 15.394c3.655 5.872 3.123 11.798 4.885 14.628s7.088 7.76 20.105-.343 9.951-17.286 8.014-20.399c-9.072-14.574-39.477-4.286-33.004 6.114z" fill="#efefef"/></g></g><g id="color"><g><path d="m14 6.5c-.827 0-1.5-.673-1.5-1.5s.673-1.5 1.5-1.5 1.5.673 1.5 1.5-.673 1.5-1.5 1.5zm0-2c-.275 0-.5.225-.5.5s.225.5.5.5.5-.225.5-.5-.225-.5-.5-.5z" fill="#a4afc1"/></g><g><g><path d="m27.556 6.717h1v2h-1z" fill="#a4afc1" transform="matrix(.707 -.707 .707 .707 2.761 22.099)"/></g><g><path d="m31.621 10.783h1v2h-1z" fill="#a4afc1" transform="matrix(.707 -.707 .707 .707 1.076 26.164)"/></g><g><path d="m26.879 11.283h2v1h-2z" fill="#a4afc1" transform="matrix(.707 -.707 .707 .707 -.166 23.165)"/></g><g><path d="m30.944 7.217h2v1h-2z" fill="#a4afc1" transform="matrix(.707 -.707 .707 .707 3.9 24.848)"/></g></g></g><g id="regular"><g><path d="m17.25 6.75h1.5v15.5h-1.5z"/></g><g><path d="m18 23c-.192 0-.384-.073-.53-.22l-4-4 1.061-1.061 3.47 3.47 3.47-3.47 1.061 1.061-4 4c-.148.147-.34.22-.532.22z"/></g><g><path d="m27.25 30h-18.5c-1.517 0-2.75-1.233-2.75-2.75v-4.5h1.5v4.5c0 .689.561 1.25 1.25 1.25h18.5c.689 0 1.25-.561 1.25-1.25v-4.5h1.5v4.5c0 1.517-1.233 2.75-2.75 2.75z"/></g></g></svg>