<svg enable-background="new 0 0 36 36" height="512" viewBox="0 0 36 36" width="512" xmlns="http://www.w3.org/2000/svg"><g id="bg"><g><path d="m3.442 23.883c6.061 3.333 8.497 8.761 11.417 10.367 2.921 1.606 9.978 3.299 17.366-10.137s.221-19.945-2.992-21.712c-15.042-8.27-36.525 15.58-25.791 21.482z" fill="#efefef"/></g></g><g id="color"><g><path d="m29.25 6.75c-.566 6.944-2.645 11.155-6.445 14.955-3.791 3.799-7.655 4.886-12.255 3.745-1.043-4.223-.218-7.818 2.85-11.31.647.967 1.441 2.501 1.151 3.911 0 0 2.754-3.926 2.299-7.021 3.434-2.466 7.647-3.893 12.4-4.28z" fill="#2fdf84"/></g><g><g><path d="m14 18.176c1.5.949 5.499-3.554 5.382-6.582 2.81-2.017 6.115-3.891 9.836-4.517.01-.11.023-.215.032-.327-4.753.387-8.966 1.814-12.4 4.28.177 1.207-1.026 4.813-2.85 7.146z" fill="#00b871"/></g><g><path d="m13.05 25.45c-.842-3.411-.441-6.409 1.351-9.277-.239-.773-.639-1.493-1.001-2.033-3.068 3.492-3.893 7.087-2.85 11.31 1.593.395 3.097.516 4.541.357-.666-.069-1.344-.184-2.041-.357z" fill="#00b871"/></g></g><g><g><path d="m4.555 3.717h1v2h-1z" fill="#a4afc1" transform="matrix(.707 -.707 .707 .707 -1.855 4.956)"/></g><g><path d="m8.621 7.783h1v2h-1z" fill="#a4afc1" transform="matrix(.707 -.707 .707 .707 -3.539 9.022)"/></g><g><path d="m3.878 8.283h2v1h-2z" fill="#a4afc1" transform="matrix(.707 -.707 .707 .707 -4.782 6.022)"/></g><g><path d="m7.944 4.217h2v1h-2z" fill="#a4afc1" transform="matrix(.707 -.707 .707 .707 -.716 7.706)"/></g></g><g><path d="m31 19.323c-.827 0-1.5-.673-1.5-1.5s.673-1.5 1.5-1.5 1.5.673 1.5 1.5-.673 1.5-1.5 1.5zm0-2c-.276 0-.5.224-.5.5s.224.5.5.5.5-.224.5-.5-.224-.5-.5-.5z" fill="#a4afc1"/></g></g><g id="regular"><g><path d="m4.472 23h15.556v1.5h-15.556z" transform="matrix(.707 -.707 .707 .707 -13.206 15.618)"/></g><g><path d="m13.861 26.629c-1.121 0-2.282-.151-3.492-.451-.27-.067-.481-.278-.547-.548-1.125-4.554-.167-8.362 3.015-11.985.154-.175.38-.265.613-.253.232.016.444.138.574.332.369.551.755 1.234 1.018 1.978.643-1.31 1.286-3.071 1.067-4.562-.041-.277.077-.555.305-.718 3.521-2.528 7.819-4.014 12.776-4.418.224-.014.436.062.591.217.156.156.235.372.217.591-.552 6.776-2.482 11.245-6.662 15.425-2.949 2.954-6.021 4.392-9.475 4.392zm-2.686-1.803c4.231.92 7.674-.216 11.1-3.65 3.719-3.719 5.532-7.703 6.146-13.593-4.143.46-7.764 1.739-10.78 3.809.19 3.248-2.361 6.928-2.475 7.09-.204.291-.584.398-.911.258-.327-.141-.509-.491-.438-.839.167-.811-.147-1.725-.52-2.459-2.233 2.883-2.894 5.83-2.122 9.384z"/></g></g></svg>