<svg enable-background="new 0 0 36 36" height="512" viewBox="0 0 36 36" width="512" xmlns="http://www.w3.org/2000/svg"><g id="bg"><g><path d="m4.167 27.623c0-6.917-3.583-11.667-3.583-15s1.916-10.333 17.249-10.333 17.583 9.417 17.583 13.083c.001 17.167-31.249 24.5-31.249 12.25z" fill="#efefef"/></g></g><g id="color"><g><path d="m29.25 7.75v2.315c0 .28-.118.548-.324.737l-8.027 7.353c-.414.379-.649.914-.649 1.475v6.085c0 .334-.167.647-.445.832l-4.055 2.703v-9.62c0-.561-.235-1.096-.649-1.475l-8.027-7.353c-.207-.189-.324-.457-.324-.737v-2.315c0-.552.448-1 1-1h20.5c.552 0 1 .448 1 1z" fill="#2fdf84"/></g><g><path d="m18 27.75v-8.12c0-.561-.235-1.096-.649-1.475l-8.027-7.353c-.206-.189-.324-.457-.324-.737v-2.315c0-.552.448-1 1-1h-2.25c-.552 0-1 .448-1 1v2.315c0 .28.118.548.324.737l8.027 7.353c.414.379.649.914.649 1.475v9.62z" fill="#00b871"/></g><g><path d="m31 6.5c-.827 0-1.5-.673-1.5-1.5s.673-1.5 1.5-1.5 1.5.673 1.5 1.5-.673 1.5-1.5 1.5zm0-2c-.275 0-.5.224-.5.5s.225.5.5.5.5-.224.5-.5-.225-.5-.5-.5z" fill="#a4afc1"/></g></g><g id="regular"><g><path d="m15.75 30c-.121 0-.243-.029-.354-.089-.244-.13-.396-.385-.396-.661v-9.62c0-.35-.147-.686-.405-.922l-8.027-7.353c-.362-.332-.568-.802-.568-1.29v-2.315c0-.965.785-1.75 1.75-1.75h6.25v1.5h-6.25c-.138 0-.25.112-.25.25v2.315c0 .07.03.137.082.185l8.025 7.352c.567.52.893 1.259.893 2.028v8.218l2.889-1.926c.069-.046.111-.124.111-.208v-6.084c0-.77.325-1.509.894-2.028l8.025-7.353c.051-.047.081-.114.081-.184v-2.315c0-.138-.112-.25-.25-.25h-12.25v-1.5h12.25c.965 0 1.75.785 1.75 1.75v2.315c0 .488-.206.958-.566 1.29l-8.027 7.354c-.26.235-.407.571-.407.921v6.084c0 .586-.291 1.131-.779 1.456l-4.055 2.703c-.125.085-.27.127-.416.127z"/></g></g></svg>