<svg enable-background="new 0 0 36 36" height="512" viewBox="0 0 36 36" width="512" xmlns="http://www.w3.org/2000/svg"><g id="bg"><g><path d="m34.904 20.355c-3.782-5.791-3.38-11.727-5.203-14.518s-7.256-7.603-20.093.782-9.572 17.5-7.566 20.569c9.388 14.372 39.561 3.423 32.862-6.833z" fill="#efefef"/></g></g><g id="color"><g><path d="m25.25 6.75h-15.5v11.5h15.5c.552 0 1-.448 1-1v-9.5c0-.552-.448-1-1-1z" fill="#2fdf84"/></g><g><path d="m9.75 6.75h2.25v11.5h-2.25z" fill="#00b871"/></g><g><g><path d="m26.306 25.707h1v2h-1z" fill="#a4afc1" transform="matrix(.707 -.707 .707 .707 -11.034 26.777)"/></g><g><path d="m30.371 29.773h1v2h-1z" fill="#a4afc1" transform="matrix(.707 -.707 .707 .707 -12.718 30.842)"/></g><g><path d="m25.629 30.273h2v1h-2z" fill="#a4afc1" transform="matrix(.707 -.707 .707 .707 -13.96 27.843)"/></g><g><path d="m29.694 26.207h2v1h-2z" fill="#a4afc1" transform="matrix(.707 -.707 .707 .707 -9.895 29.527)"/></g></g><g><path d="m5.306 6.717c-.827 0-1.5-.673-1.5-1.5s.673-1.5 1.5-1.5 1.5.673 1.5 1.5-.673 1.5-1.5 1.5zm0-2c-.275 0-.5.224-.5.5s.225.5.5.5.5-.224.5-.5-.225-.5-.5-.5z" fill="#a4afc1"/></g></g><g id="regular"><g><path d="m10.5 29.25h-1.5v-22.5c0-.414.336-.75.75-.75h15.5c.965 0 1.75.785 1.75 1.75v9.5c0 .965-.785 1.75-1.75 1.75h-14.75zm0-11.75h14.75c.138 0 .25-.112.25-.25v-9.5c0-.138-.112-.25-.25-.25h-14.75z"/></g></g></svg>