<svg enable-background="new 0 0 36 36" height="512" viewBox="0 0 36 36" width="512" xmlns="http://www.w3.org/2000/svg"><g id="bg"><g><path d="m8.377 4.167c6.917 0 11.667-3.583 15-3.583s10.333 1.916 10.333 17.249-9.417 17.583-13.083 17.583c-17.167.001-24.5-31.249-12.25-31.249z" fill="#efefef"/></g></g><g id="color"><g><path d="m6.75 9.5v3.318c0 .594.264 1.157.72 1.537l7.56 6.296c.456.38.72.943.72 1.537v7.063l4.055-2.703c.278-.185.445-.498.445-.832v-3.528c0-.594.264-1.157.72-1.537l7.56-6.296c.456-.38.72-.943.72-1.537v-3.318z" fill="#2fdf84"/></g><g><path d="m18.25 27.583v-5.396c0-.594-.264-1.157-.72-1.537l-7.56-6.296c-.456-.38-.72-.943-.72-1.537v-3.317h-2.5v3.318c0 .594.264 1.157.72 1.537l7.56 6.296c.456.38.72.943.72 1.537v7.063z" fill="#00b871"/></g><g><ellipse cx="18" cy="9.5" fill="#f3f3f1" rx="11.25" ry="2.75"/></g><g><path d="m9.25 9.5c0-1.415 4.376-2.58 10-2.732-.411-.011-.827-.018-1.25-.018-6.213 0-11.25 1.231-11.25 2.75s5.037 2.75 11.25 2.75c.423 0 .839-.007 1.25-.018-5.624-.152-10-1.317-10-2.732z" fill="#d5dbe1"/></g><g><g><path d="m4.589 25.707h1v2h-1z" fill="#a4afc1" transform="matrix(.707 -.707 .707 .707 -17.394 11.421)"/></g><g><path d="m8.654 29.773h1v2h-1z" fill="#a4afc1" transform="matrix(.707 -.707 .707 .707 -19.079 15.486)"/></g><g><path d="m3.912 30.273h2v1h-2z" fill="#a4afc1" transform="matrix(.707 -.707 .707 .707 -20.321 12.487)"/></g><g><path d="m7.978 26.207h2v1h-2z" fill="#a4afc1" transform="matrix(.707 -.707 .707 .707 -16.255 14.17)"/></g></g><g><path d="m30.871 19c-.827 0-1.5-.673-1.5-1.5s.673-1.5 1.5-1.5 1.5.673 1.5 1.5-.673 1.5-1.5 1.5zm0-2c-.275 0-.5.224-.5.5s.225.5.5.5.5-.224.5-.5-.225-.5-.5-.5z" fill="#a4afc1"/></g></g><g id="regular"><g><path d="m15.75 30c-.121 0-.243-.029-.354-.089-.244-.13-.396-.385-.396-.661v-7.063c0-.372-.164-.722-.45-.96l-7.56-6.296c-.63-.524-.99-1.294-.99-2.113v-3.318h1.5v3.318c0 .372.164.722.45.96l7.56 6.296c.63.524.99 1.294.99 2.113v5.662l2.889-1.926c.069-.046.111-.124.111-.208v-3.528c0-.819.36-1.589.989-2.113l7.562-6.296c.285-.238.449-.588.449-.96l1.5-.068v.068c0 .819-.36 1.589-.989 2.113l-7.562 6.296c-.285.238-.449.588-.449.96v3.528c0 .586-.291 1.131-.779 1.456l-4.055 2.703c-.125.084-.27.126-.416.126z"/></g><g><path d="m18 13c-4.457 0-12-.737-12-3.5s7.543-3.5 12-3.5 12 .737 12 3.5-7.543 3.5-12 3.5zm0-5.5c-6.534 0-10.31 1.31-10.501 2.012.191.678 3.967 1.988 10.501 1.988 6.498 0 10.268-1.295 10.498-2-.23-.705-4-2-10.498-2z"/></g></g></svg>