<svg enable-background="new 0 0 36 36" height="512" viewBox="0 0 36 36" width="512" xmlns="http://www.w3.org/2000/svg"><g id="bg"><g><path d="m27.417 3.914c-6.915.129-11.732-3.365-15.064-3.302s-10.296 2.109-10.009 17.44 9.744 17.404 13.41 17.336c17.163-.321 23.911-31.703 11.663-31.474z" fill="#efefef"/></g></g><g id="color"><g><path d="m29.25 18c0 1.31-.23 2.57-.64 3.75h-7.61c0-1.66-1.34-3-3-3s-3 1.34-3 3h-7.61c-.41-1.18-.64-2.44-.64-3.75 0-6.21 5.04-11.25 11.25-11.25s11.25 5.04 11.25 11.25z" fill="#f3f3f1"/></g><g><g><path d="m19.209 6.817c-.398-.042-.8-.067-1.209-.067-6.21 0-11.25 5.04-11.25 11.25 0 1.31.23 2.57.64 3.75h2.261c-.417-1.18-.651-2.44-.651-3.75 0-5.801 4.473-10.579 10.209-11.183z" fill="#d5dbe1"/></g></g><g><path d="m28.61 21.75c-1.55 4.37-5.71 7.5-10.61 7.5s-9.06-3.13-10.61-7.5z" fill="#2fdf84"/></g><g><path d="m21 21.75h-6c0-1.66 1.34-3 3-3s3 1.34 3 3z" fill="#2fdf84"/></g><g><path d="m9.64 21.75h-2.25c1.55 4.37 5.71 7.5 10.61 7.5.38 0 .754-.025 1.125-.062-4.403-.438-8.055-3.407-9.485-7.438z" fill="#00b871"/></g><g><path d="m19.125 18.972c-.348-.141-.726-.222-1.125-.222-1.66 0-3 1.34-3 3h2.25c0-1.261.775-2.334 1.875-2.778z" fill="#00b871"/></g><g><g><path d="m5.056 25.912h1v2h-1z" fill="#a4afc1" transform="matrix(.707 -.707 .707 .707 -17.402 11.811)"/></g><g><path d="m9.121 29.978h1v2h-1z" fill="#a4afc1" transform="matrix(.707 -.707 .707 .707 -19.087 15.876)"/></g><g><path d="m4.379 30.478h2v1h-2z" fill="#a4afc1" transform="matrix(.707 -.707 .707 .707 -20.329 12.877)"/></g></g></g><g id="regular"><g><path d="m18 30c-6.617 0-12-5.383-12-12s5.383-12 12-12 12 5.383 12 12-5.383 12-12 12zm0-22.5c-5.79 0-10.5 4.71-10.5 10.5s4.71 10.5 10.5 10.5 10.5-4.71 10.5-10.5-4.71-10.5-10.5-10.5z"/></g><g><path d="m21.75 21.75h-1.5c0-1.241-1.01-2.25-2.25-2.25s-2.25 1.009-2.25 2.25h-1.5c0-2.068 1.683-3.75 3.75-3.75s3.75 1.682 3.75 3.75z"/></g><g><path d="m7.39 21h21.221v1.5h-21.221z"/></g><g><path d="m17.25 11.75h1.5v7h-1.5z"/></g></g></svg>