<svg enable-background="new 0 0 36 36" height="512" viewBox="0 0 36 36" width="512" xmlns="http://www.w3.org/2000/svg"><g id="bg"><g><path d="m13.411 34.999c6.298-2.859 12.105-1.559 15.14-2.936 3.035-1.378 8.617-6.016 2.28-19.978s-15.841-12.12-19.18-10.605c-15.632 7.095-9.395 38.582 1.76 33.519z" fill="#efefef"/></g></g><g id="color"><g><path d="m20.88 13.28c-.23-.18-.38-.46-.38-.78s.15-.6.38-.78l5.43-4.08c.12-.09.19-.23.19-.39 0-.28-.22-.5-.5-.5h-16.25v11.5h16.25c.28 0 .5-.22.5-.5 0-.16-.07-.3-.19-.39z" fill="#f3f3f1"/></g><g><path d="m9.75 6.75h2.25v11.5h-2.25z" fill="#d5dbe1"/></g><g><g><path d="m26.556 25.707h1v2h-1z" fill="#a4afc1" transform="matrix(.707 -.707 .707 .707 -10.96 26.954)"/></g><g><path d="m30.621 29.773h1v2h-1z" fill="#a4afc1" transform="matrix(.707 -.707 .707 .707 -12.645 31.019)"/></g><g><path d="m25.879 30.273h2v1h-2z" fill="#a4afc1" transform="matrix(.707 -.707 .707 .707 -13.887 28.019)"/></g><g><path d="m29.944 26.207h2v1h-2z" fill="#a4afc1" transform="matrix(.707 -.707 .707 .707 -9.821 29.703)"/></g></g><g><path d="m30.944 6.717c-.827 0-1.5-.673-1.5-1.5s.673-1.5 1.5-1.5 1.5.673 1.5 1.5-.673 1.5-1.5 1.5zm0-2c-.275 0-.5.224-.5.5s.225.5.5.5.5-.224.5-.5-.224-.5-.5-.5z" fill="#a4afc1"/></g></g><g id="regular"><g><path d="m10.5 29.25h-1.5v-22.5c0-.414.336-.75.75-.75h16.25c.689 0 1.25.561 1.25 1.25 0 .395-.179.755-.489.99l-5.431 4.08c-.021.018-.08.079-.08.181s.059.163.093.19l5.417 4.07c.312.234.49.595.49.99 0 .689-.561 1.25-1.25 1.25h-13.75v-1.5h12.997l-4.817-3.62c-.437-.342-.68-.842-.68-1.38s.243-1.038.667-1.37l4.83-3.63h-14.747z"/></g></g></svg>