<svg enable-background="new 0 0 36 36" height="512" viewBox="0 0 36 36" width="512" xmlns="http://www.w3.org/2000/svg"><g id="bg"><g><path d="m1.063 15.31c3.655 5.872 3.123 11.798 4.885 14.628s7.088 7.76 20.105-.343 9.951-17.286 8.014-20.399c-9.072-14.574-39.477-4.285-33.004 6.114z" fill="#efefef"/></g></g><g id="color"><g><path d="m29.25 8.75v9.25h-3.45c-.79 0-1.51.46-1.83 1.18l-2.56 5.73c-.15.35-.5.59-.91.59-.45 0-.83-.3-.96-.71l-4.08-13.58c-.13-.41-.51-.71-.96-.71s-.83.3-.96.71l-1.61 5.37c-.26.84-1.03 1.42-1.92 1.42h-3.26v-9.25c0-1.1.9-2 2-2h18.5c1.1 0 2 .9 2 2z" fill="#f3f3f1"/></g><g><path d="m29.25 18v9.25c0 1.1-.9 2-2 2h-18.5c-1.1 0-2-.9-2-2v-9.25h3.26c.89 0 1.66-.58 1.92-1.42l1.61-5.37c.13-.41.51-.71.96-.71s.83.3.96.71l4.08 13.58c.13.41.51.71.96.71.41 0 .76-.24.91-.59l2.56-5.73c.32-.72 1.04-1.18 1.83-1.18z" fill="#2fdf84"/></g><g><g><path d="m11.25 6.75h-2.5c-1.1 0-2 .9-2 2v9.25h2.5v-9.25c0-1.1.9-2 2-2z" fill="#d5dbe1"/></g></g><g><g><path d="m9.25 27.25v-9.25h-2.5v9.25c0 1.1.9 2 2 2h2.5c-1.1 0-2-.9-2-2z" fill="#00b871"/></g></g><g><g><path d="m28.625 31h1v2h-1z" fill="#a4afc1"/></g><g><path d="m30.875 28.5h2v1h-2z" fill="#a4afc1"/></g></g><g><path d="m5.445 6.577c-.827 0-1.5-.673-1.5-1.5s.673-1.5 1.5-1.5 1.5.673 1.5 1.5-.673 1.5-1.5 1.5zm0-2c-.275 0-.5.224-.5.5s.225.5.5.5.5-.224.5-.5-.224-.5-.5-.5z" fill="#a4afc1"/></g></g><g id="regular"><g><path d="m27.25 30h-18.5c-1.517 0-2.75-1.233-2.75-2.75v-18.5c0-1.517 1.233-2.75 2.75-2.75h18.5c1.517 0 2.75 1.233 2.75 2.75v18.5c0 1.517-1.233 2.75-2.75 2.75zm-18.5-22.5c-.689 0-1.25.561-1.25 1.25v18.5c0 .689.561 1.25 1.25 1.25h18.5c.689 0 1.25-.561 1.25-1.25v-18.5c0-.689-.561-1.25-1.25-1.25z"/></g><g><path d="m20.5 26.25c-.769 0-1.441-.496-1.675-1.233l-4.084-13.591c-.025-.082-.112-.176-.241-.176s-.216.094-.245.187l-1.606 5.359c-.362 1.171-1.422 1.955-2.639 1.955h-3.26v-1.5h3.26c.555 0 1.038-.358 1.203-.892l1.608-5.364c.237-.749.91-1.245 1.679-1.245s1.441.496 1.675 1.233l4.084 13.591c.025.082.112.176.241.176.12 0 .192-.07.222-.136l2.563-5.739c.438-.986 1.426-1.625 2.515-1.625h.95v1.5h-.95c-.497 0-.946.289-1.145.735l-2.561 5.731c-.268.624-.895 1.034-1.594 1.034z"/></g></g></svg>