<svg enable-background="new 0 0 36 36" height="512" viewBox="0 0 36 36" width="512" xmlns="http://www.w3.org/2000/svg"><g id="bg"><g><path d="m13.411 34.999c6.298-2.859 12.105-1.559 15.14-2.936 3.035-1.378 8.617-6.016 2.28-19.978s-15.841-12.12-19.18-10.605c-15.632 7.095-9.395 38.582 1.76 33.519z" fill="#efefef"/></g></g><g id="color"><g><circle cx="18" cy="18" fill="#2fdf84" r="11.25"/></g><g><path d="m9 18c0-5.833 4.44-10.629 10.125-11.193-.37-.037-.745-.057-1.125-.057-6.213 0-11.25 5.037-11.25 11.25s5.037 11.25 11.25 11.25c.38 0 .755-.02 1.125-.057-5.685-.564-10.125-5.36-10.125-11.193z" fill="#00b871"/></g><g><g><path d="m4.555 25.967h1v2h-1z" fill="#a4afc1" transform="matrix(.707 -.707 .707 .707 -17.588 11.473)"/></g><g><path d="m8.621 30.033h1v2h-1z" fill="#a4afc1" transform="matrix(.707 -.707 .707 .707 -19.272 15.539)"/></g><g><path d="m3.878 30.533h2v1h-2z" fill="#a4afc1" transform="matrix(.707 -.707 .707 .707 -20.515 12.539)"/></g></g></g><g id="regular"><g><path d="m18 30c-6.617 0-12-5.383-12-12s5.383-12 12-12 12 5.383 12 12-5.383 12-12 12zm0-22.5c-5.79 0-10.5 4.71-10.5 10.5s4.71 10.5 10.5 10.5 10.5-4.71 10.5-10.5-4.71-10.5-10.5-10.5z"/></g><g><path d="m13.75 13h8.5v1.5h-8.5z"/></g><g><path d="m13.75 17.25h8.5v1.5h-8.5z"/></g><g><path d="m13.75 21.5h8.5v1.5h-8.5z"/></g></g></svg>