<svg enable-background="new 0 0 36 36" height="512" viewBox="0 0 36 36" width="512" xmlns="http://www.w3.org/2000/svg"><g id="bg"><g><path d="m34.904 20.355c-3.782-5.791-3.38-11.727-5.203-14.518s-7.256-7.603-20.093.782-9.572 17.5-7.566 20.569c9.388 14.372 39.561 3.423 32.862-6.833z" fill="#efefef"/></g></g><g id="color"><g><path d="m29.1 17.39-2.85-2.732v-6.908h-3.5v3.553l-4.75-4.553-11.1 10.64c-.09.09-.15.22-.15.36 0 .28.22.5.5.5h2.5v10c0 .55.45 1 1 1h14.5c.55 0 1-.45 1-1v-10h2.5c.28 0 .5-.22.5-.5 0-.14-.06-.27-.15-.36z" fill="#f3f3f1"/></g><g><path d="m21.25 29.25v-6.5c0-.552-.448-1-1-1h-4.5c-.552 0-1 .448-1 1v6.5z" fill="#2fdf84"/></g><g><path d="m18 21.75h-2.25c-.552 0-1 .448-1 1v6.5h2.25v-6.5c0-.552.448-1 1-1z" fill="#00b871"/></g><g><g><path d="m13 28.25v-10h-2.5c-.28 0-.5-.22-.5-.5 0-.14.06-.27.15-.36l9.475-9.082-1.625-1.558-11.1 10.64c-.09.09-.15.22-.15.36 0 .28.22.5.5.5h2.5v10c0 .55.45 1 1 1h3.25c-.55 0-1-.45-1-1z" fill="#d5dbe1"/></g></g><g><g><path d="m28.7 30.773h1v2h-1z" fill="#a4afc1" transform="matrix(.707 -.707 .707 .707 -13.915 29.953)"/></g><g><path d="m23.957 31.273h2v1h-2z" fill="#a4afc1" transform="matrix(.707 -.707 .707 .707 -15.157 26.953)"/></g><g><path d="m28.023 27.207h2v1h-2z" fill="#a4afc1" transform="matrix(.707 -.707 .707 .707 -11.091 28.638)"/></g></g><g><path d="m6 7.5c-.827 0-1.5-.673-1.5-1.5s.673-1.5 1.5-1.5 1.5.673 1.5 1.5-.673 1.5-1.5 1.5zm0-2c-.276 0-.5.224-.5.5s.224.5.5.5.5-.224.5-.5-.224-.5-.5-.5z" fill="#a4afc1"/></g></g><g id="regular"><g><path d="m25.25 30h-4c-.414 0-.75-.336-.75-.75v-6.75c0-.138-.112-.25-.25-.25h-4.5c-.138 0-.25.112-.25.25v1.042h-1.5v-1.042c0-.965.785-1.75 1.75-1.75h4.5c.965 0 1.75.785 1.75 1.75v6h3.25c.136 0 .25-.114.25-.25v-10c0-.414.336-.75.75-.75h1.892l-2.417-2.375c-.143-.141-.224-.334-.224-.535v-6.09h-2v2.63c0 .298-.176.567-.449.687-.271.12-.59.066-.809-.136l-4.233-3.902-10.141 9.721h1.881c.414 0 .75.336.75.75v10c0 .136.114.25.25.25h3.25v-3.458h1.5v4.208c0 .414-.336.75-.75.75h-4c-.965 0-1.75-.785-1.75-1.75v-9.25h-1.75c-.689 0-1.25-.561-1.25-1.25 0-.331.135-.655.37-.89l11.111-10.652c.286-.274.736-.279 1.027-.01l3.492 3.22v-1.668c0-.414.336-.75.75-.75h3.5c.414 0 .75.336.75.75v6.525l2.625 2.58c.24.24.375.564.375.895 0 .689-.561 1.25-1.25 1.25h-1.75v9.25c0 .965-.785 1.75-1.75 1.75z"/></g><g><path d="m14.75 28.5h6.5v1.5h-6.5z"/></g></g></svg>