<svg enable-background="new 0 0 36 36" height="512" viewBox="0 0 36 36" width="512" xmlns="http://www.w3.org/2000/svg"><g id="bg"><g><path d="m8.377 31.833c6.917 0 11.667 3.583 15 3.583s10.333-1.916 10.333-17.249-9.417-17.584-13.083-17.584c-17.167 0-24.5 31.25-12.25 31.25z" fill="#efefef"/></g></g><g id="color"><g><path d="m29.25 17.75c0 .28-.22.5-.5.5h-2.5v9.5c0 .825-.675 1.5-1.5 1.5h-13.5c-.825 0-1.5-.675-1.5-1.5v-9.5h-2.5c-.28 0-.5-.22-.5-.5 0-.14.06-.27.15-.36l11.1-10.64 11.1 10.64c.09.09.15.22.15.36z" fill="#2fdf84"/></g><g><path d="m12.438 27.75v-9.5h-2.5c-.28 0-.5-.22-.5-.5 0-.14.06-.27.15-.36l9.756-9.352-1.344-1.288-11.1 10.64c-.09.09-.15.22-.15.36 0 .28.22.5.5.5h2.5v9.5c0 .825.675 1.5 1.5 1.5h2.688c-.826 0-1.5-.675-1.5-1.5z" fill="#00b871"/></g><g><g><path d="m3.977 2.967h1v2h-1z" fill="#a4afc1" transform="matrix(.707 -.707 .707 .707 -1.494 4.327)"/></g><g><path d="m8.043 7.033h1v2h-1z" fill="#a4afc1" transform="matrix(.707 -.707 .707 .707 -3.178 8.392)"/></g><g><path d="m3.3 7.533h2v1h-2z" fill="#a4afc1" transform="matrix(.707 -.707 .707 .707 -4.421 5.394)"/></g><g><path d="m7.366 3.467h2v1h-2z" fill="#a4afc1" transform="matrix(.707 -.707 .707 .707 -.355 7.078)"/></g></g><g><path d="m31.25 26.25c-.827 0-1.5-.673-1.5-1.5s.673-1.5 1.5-1.5 1.5.673 1.5 1.5-.673 1.5-1.5 1.5zm0-2c-.276 0-.5.224-.5.5s.224.5.5.5.5-.224.5-.5-.224-.5-.5-.5z" fill="#a4afc1"/></g></g><g id="regular"><g><path d="m24.75 30h-13.5c-1.241 0-2.25-1.009-2.25-2.25v-8.75h-1.75c-.689 0-1.25-.561-1.25-1.25 0-.331.135-.655.37-.89l11.111-10.652c.29-.278.748-.278 1.038 0l11.1 10.64c.246.247.381.571.381.902 0 .689-.561 1.25-1.25 1.25h-1.75v.688h-1.5v-1.438c0-.414.336-.75.75-.75h1.881l-10.131-9.711-10.131 9.711h1.881c.414 0 .75.336.75.75v9.5c0 .414.336.75.75.75h13.5c.414 0 .75-.336.75-.75v-5.188h1.5v5.188c0 1.241-1.009 2.25-2.25 2.25z"/></g><g><path d="m25.5 19.688h1.5v1.125h-1.5z"/></g><g><path d="m2 28.5h32v1.5h-32z"/></g></g></svg>