<svg enable-background="new 0 0 36 36" height="512" viewBox="0 0 36 36" width="512" xmlns="http://www.w3.org/2000/svg"><g id="bg"><g><path d="m8.114 5.564c-1.805 6.677-6.504 10.327-7.374 13.545s-.847 10.475 13.955 14.477 19.432-4.501 20.388-8.041c4.481-16.572-23.772-31.807-26.969-19.981z" fill="#efefef"/></g></g><g id="color"><g><path d="m18 6.75-11.1 10.64c-.09.09-.15.22-.15.36 0 .28.22.5.5.5h2.5v9.5c0 .825.675 1.5 1.5 1.5h13.5c.825 0 1.5-.675 1.5-1.5v-9.5h2.5c.28 0 .5-.22.5-.5 0-.14-.06-.27-.15-.36l-2.85-2.8v-6.84h-3.5v3.38z" fill="#2fdf84"/></g><g><g><path d="m13 27.75v-9.5h-2.5c-.28 0-.5-.22-.5-.5 0-.14.06-.27.15-.36l9.506-9.113-1.656-1.527-11.1 10.64c-.09.09-.15.22-.15.36 0 .28.22.5.5.5h2.5v9.5c0 .825.675 1.5 1.5 1.5h3.25c-.825 0-1.5-.675-1.5-1.5z" fill="#00b871"/></g></g><g><g><path d="m24.662 3.717h1v2h-1z" fill="#a4afc1" transform="matrix(.707 -.707 .707 .707 4.032 19.17)"/></g><g><path d="m28.728 7.783h1v2h-1z" fill="#a4afc1" transform="matrix(.707 -.707 .707 .707 2.348 23.235)"/></g><g><path d="m28.051 4.217h2v1h-2z" fill="#a4afc1" transform="matrix(.707 -.707 .707 .707 5.173 21.924)"/></g></g><g><path d="m5 27.25c-.827 0-1.5-.673-1.5-1.5s.673-1.5 1.5-1.5 1.5.673 1.5 1.5-.673 1.5-1.5 1.5zm0-2c-.276 0-.5.224-.5.5s.224.5.5.5.5-.224.5-.5-.224-.5-.5-.5z" fill="#a4afc1"/></g></g><g id="regular"><g><path d="m24.75 30h-13.5c-1.241 0-2.25-1.009-2.25-2.25v-8.75h-1.75c-.689 0-1.25-.561-1.25-1.25 0-.331.135-.655.37-.89l11.111-10.652c.286-.274.736-.279 1.027-.01l3.492 3.22v-1.668c0-.414.336-.75.75-.75h3.5c.414 0 .75.336.75.75v2.75h-1.5v-2h-2v2.63c0 .298-.176.567-.449.687-.271.12-.59.066-.809-.136l-4.232-3.902-10.141 9.721h1.881c.414 0 .75.336.75.75v9.5c0 .414.336.75.75.75h13.5c.414 0 .75-.336.75-.75v-9.5c0-.414.336-.75.75-.75h1.892l-2.417-2.375c-.143-.141-.224-.334-.224-.535v-2.59h1.499v2.275l2.625 2.58c.24.24.375.564.375.895 0 .689-.561 1.25-1.25 1.25h-1.75v8.75c0 1.241-1.009 2.25-2.25 2.25z"/></g><g><path d="m2 28.5h32v1.5h-32z"/></g></g></svg>