<svg enable-background="new 0 0 36 36" height="512" viewBox="0 0 36 36" width="512" xmlns="http://www.w3.org/2000/svg"><g id="bg"><g><path d="m1.003 14.311c3.253 6.104 2.324 11.981 3.891 14.923s6.551 8.218 20.083 1.008 11.09-16.579 9.365-19.815c-8.072-15.151-39.1-6.927-33.339 3.884z" fill="#efefef"/></g></g><g id="color"><g><circle cx="18" cy="18" fill="#2fdf84" r="11.25"/></g><g><path d="m9 18c0-5.833 4.44-10.629 10.125-11.193-.37-.037-.745-.057-1.125-.057-6.213 0-11.25 5.037-11.25 11.25s5.037 11.25 11.25 11.25c.38 0 .755-.02 1.125-.057-5.685-.564-10.125-5.36-10.125-11.193z" fill="#00b871"/></g><g><circle cx="18" cy="12" fill="#f3f3f1" r="1"/></g><g><g><path d="m26.306 4.217h1v2h-1z" fill="#a4afc1" transform="matrix(.707 -.707 .707 .707 4.16 20.479)"/></g><g><path d="m30.371 8.283h1v2h-1z" fill="#a4afc1" transform="matrix(.707 -.707 .707 .707 2.475 24.543)"/></g><g><path d="m29.694 4.717h2v1h-2z" fill="#a4afc1" transform="matrix(.707 -.707 .707 .707 5.301 23.232)"/></g></g></g><g id="regular"><g><path d="m18 13.5c-.827 0-1.5-.673-1.5-1.5s.673-1.5 1.5-1.5 1.5.673 1.5 1.5-.673 1.5-1.5 1.5zm0-2c-.275 0-.5.224-.5.5s.225.5.5.5.5-.224.5-.5-.225-.5-.5-.5z"/></g><g><path d="m18.75 24.25h-1.5v-7.75h-1v-1.5h1.75c.414 0 .75.336.75.75z"/></g><g><path d="m18 30c-6.617 0-12-5.383-12-12s5.383-12 12-12 12 5.383 12 12-5.383 12-12 12zm0-22.5c-5.79 0-10.5 4.71-10.5 10.5s4.71 10.5 10.5 10.5 10.5-4.71 10.5-10.5-4.71-10.5-10.5-10.5z"/></g><g><path d="m15.75 23.5h4.5v1.5h-4.5z"/></g></g></svg>