<svg enable-background="new 0 0 36 36" height="512" viewBox="0 0 36 36" width="512" xmlns="http://www.w3.org/2000/svg"><g id="bg"><g><path d="m30.946 28.324c.439-6.903 4.317-11.416 4.528-14.742s-1.257-10.434-16.559-11.408-18.146 8.282-18.379 11.941c-1.089 17.132 29.632 26.434 30.41 14.209z" fill="#efefef"/></g></g><g id="color"><g><path d="m27.25 29.25h-18.5c-1.105 0-2-.895-2-2v-18.5c0-1.105.895-2 2-2h18.5c1.105 0 2 .895 2 2v18.5c0 1.105-.895 2-2 2z" fill="#2fdf84"/></g><g><path d="m9 27.25v-18.5c0-1.105.895-2 2-2h-2.25c-1.105 0-2 .895-2 2v18.5c0 1.105.895 2 2 2h2.25c-1.105 0-2-.895-2-2z" fill="#00b871"/></g><g><circle cx="18" cy="12" fill="#f3f3f1" r="1"/></g><g><g><path d="m31.033 3.217h2v1h-2z" fill="#a4afc1" transform="matrix(.707 -.707 .707 .707 6.754 23.739)"/></g><g><path d="m31.533 6.96h1v2h-1z" fill="#a4afc1" transform="matrix(.707 -.707 .707 .707 3.757 24.987)"/></g><g><path d="m27.467 2.893h1v2h-1z" fill="#a4afc1" transform="matrix(.707 -.707 .707 .707 5.441 20.92)"/></g></g></g><g id="regular"><g><path d="m18 13.5c-.827 0-1.5-.673-1.5-1.5s.673-1.5 1.5-1.5 1.5.673 1.5 1.5-.673 1.5-1.5 1.5zm0-2c-.276 0-.5.225-.5.5s.224.5.5.5.5-.225.5-.5-.224-.5-.5-.5z"/></g><g><path d="m18.75 23.75h-1.5v-7.25h-1v-1.5h1.75c.414 0 .75.336.75.75z"/></g><g><path d="m27.25 30h-18.5c-1.517 0-2.75-1.233-2.75-2.75v-18.5c0-1.517 1.233-2.75 2.75-2.75h18.5c1.517 0 2.75 1.233 2.75 2.75v18.5c0 1.517-1.233 2.75-2.75 2.75zm-18.5-22.5c-.689 0-1.25.561-1.25 1.25v18.5c0 .689.561 1.25 1.25 1.25h18.5c.689 0 1.25-.561 1.25-1.25v-18.5c0-.689-.561-1.25-1.25-1.25z"/></g><g><path d="m15.75 23h4.5v1.5h-4.5z"/></g><g><path d="m2 28.5h32v1.5h-32z"/></g></g></svg>