<svg enable-background="new 0 0 36 36" height="512" viewBox="0 0 36 36" width="512" xmlns="http://www.w3.org/2000/svg"><g id="bg"><g><path d="m27.417 3.914c-6.915.129-11.732-3.365-15.064-3.302s-10.296 2.109-10.009 17.44 9.744 17.404 13.41 17.336c17.163-.321 23.911-31.703 11.663-31.474z" fill="#efefef"/></g></g><g id="color"><g><path d="m27.38 11.8-4.44 4.44c.41 1.13.41 2.39 0 3.52l4.44 4.44c2.49-3.75 2.49-8.65 0-12.4zm-11.13 11.14-4.45 4.44c3.75 2.49 8.65 2.49 12.4 0l-4.44-4.44c-1.13.41-2.38.41-3.51 0zm-3.19-6.69-4.44-4.45c-2.49 3.75-2.49 8.65 0 12.4l4.44-4.45c-.41-1.13-.41-2.37 0-3.5zm-1.26-7.63 4.45 4.44c1.13-.41 2.38-.41 3.51 0l4.44-4.44c-3.75-2.49-8.65-2.49-12.4 0z" fill="#f3f3f1"/></g><g><path d="m27.38 24.2c-.4.62-.88 1.21-1.43 1.75-.54.55-1.13 1.03-1.75 1.43l-4.44-4.44c.71-.25 1.38-.66 1.95-1.23s.98-1.24 1.23-1.95z" fill="#2fdf84"/></g><g><path d="m16.25 13.06c-.72.24-1.39.66-1.96 1.23s-.99 1.24-1.23 1.96l-4.44-4.45c.4-.62.88-1.21 1.43-1.75.54-.55 1.13-1.03 1.75-1.43z" fill="#2fdf84"/></g><g><path d="m27.38 11.8-4.44 4.44c-.25-.71-.66-1.38-1.23-1.95s-1.24-.98-1.95-1.23l4.44-4.44c.62.4 1.21.88 1.75 1.43.55.54 1.03 1.13 1.43 1.75z" fill="#2fdf84"/></g><g><path d="m16.25 22.94-4.45 4.44c-.62-.4-1.21-.88-1.75-1.43-.55-.54-1.03-1.13-1.43-1.75l4.44-4.45c.24.72.66 1.39 1.23 1.96s1.24.99 1.96 1.23z" fill="#2fdf84"/></g><g><path d="m12.3 25.95c-.55-.54-1.03-1.13-1.43-1.75-.309-.465-.578-.947-.81-1.443l-1.44 1.443c.4.62.88 1.21 1.43 1.75.54.55 1.13 1.03 1.75 1.43l.987-.985c-.163-.147-.331-.286-.487-.445z" fill="#00b871"/></g><g><path d="m10.87 11.8c.4-.62.88-1.21 1.43-1.75.156-.159.324-.298.487-.445l-.987-.985c-.62.4-1.21.88-1.75 1.43-.55.54-1.03 1.13-1.43 1.75l1.44 1.443c.232-.496.501-.978.81-1.443z" fill="#00b871"/></g><g><path d="m14.05 8.62c1.549-1.029 3.295-1.625 5.075-1.804-2.528-.254-5.124.343-7.325 1.804l.987.985c.404-.362.822-.7 1.263-.985z" fill="#d5dbe1"/></g><g><path d="m10.06 13.243-1.44-1.443c-2.49 3.75-2.49 8.65 0 12.4l1.44-1.443c-1.409-3.008-1.409-6.506 0-9.514z" fill="#d5dbe1"/></g><g><path d="m14.05 27.38c-.441-.285-.859-.623-1.263-.985l-.987.985c2.201 1.461 4.797 2.058 7.325 1.804-1.78-.179-3.526-.775-5.075-1.804z" fill="#d5dbe1"/></g><g><g><path d="m26.194 4.467h1v2h-1z" fill="#a4afc1" transform="matrix(.707 -.707 .707 .707 3.95 20.473)"/></g><g><path d="m30.26 8.533h1v2h-1z" fill="#a4afc1" transform="matrix(.707 -.707 .707 .707 2.266 24.538)"/></g><g><path d="m29.583 4.967h2v1h-2z" fill="#a4afc1" transform="matrix(.707 -.707 .707 .707 5.092 23.227)"/></g></g><g><path d="m5.283 32.25c-.827 0-1.5-.673-1.5-1.5s.673-1.5 1.5-1.5 1.5.673 1.5 1.5-.673 1.5-1.5 1.5zm0-2c-.276 0-.5.224-.5.5s.224.5.5.5.5-.224.5-.5-.224-.5-.5-.5z" fill="#a4afc1"/></g></g><g id="regular"><g><path d="m18 29.994c-3.073 0-6.146-1.169-8.485-3.509-4.678-4.679-4.678-12.292 0-16.971 4.679-4.679 12.292-4.678 16.971 0 1.749 1.749 2.9 3.956 3.33 6.383l-1.477.262c-.376-2.123-1.384-4.054-2.914-5.584-4.094-4.093-10.755-4.093-14.85 0-4.093 4.094-4.093 10.755 0 14.85 4.094 4.093 10.755 4.093 14.85 0 1.983-1.984 3.075-4.62 3.075-7.425h1.5c0 3.206-1.248 6.219-3.515 8.485-2.339 2.34-5.412 3.509-8.485 3.509z"/></g><g><path d="m18 23.998c-1.537 0-3.073-.585-4.243-1.755-2.339-2.339-2.339-6.146 0-8.485 2.339-2.34 6.146-2.34 8.485 0 2.339 2.339 2.339 6.146 0 8.485-1.169 1.17-2.705 1.755-4.242 1.755zm0-10.496c-1.152 0-2.305.438-3.182 1.316-1.754 1.755-1.754 4.609 0 6.364 1.755 1.755 4.609 1.755 6.364 0 1.754-1.755 1.754-4.609 0-6.364-.877-.878-2.03-1.316-3.182-1.316z"/></g><g><path d="m10.091 10.878h1.5v6.29h-1.5z" transform="matrix(.707 -.707 .707 .707 -6.74 11.773)"/></g><g><path d="m21.231 22.023h1.5v6.28h-1.5z" transform="matrix(.707 -.707 .707 .707 -11.355 22.913)"/></g><g><path d="m13.273 7.696h1.5v6.29h-1.5z" transform="matrix(.707 -.707 .707 .707 -3.558 13.091)"/></g><g><path d="m24.413 18.841h1.5v6.28h-1.5z" transform="matrix(.707 -.707 .707 .707 -8.173 24.231)"/></g><g><path d="m10.878 24.41h6.29v1.5h-6.29z" transform="matrix(.707 -.707 .707 .707 -13.683 17.285)"/></g><g><path d="m22.023 13.269h6.28v1.5h-6.28z" transform="matrix(.707 -.707 .707 .707 -2.543 21.899)"/></g><g><path d="m7.696 21.227h6.29v1.5h-6.29z" transform="matrix(.707 -.707 .707 .707 -12.365 14.102)"/></g><g><path d="m18.841 10.087h6.28v1.5h-6.28z" transform="matrix(.707 -.707 .707 .707 -1.225 18.717)"/></g></g></svg>