<svg enable-background="new 0 0 36 36" height="512" viewBox="0 0 36 36" width="512" xmlns="http://www.w3.org/2000/svg"><g id="bg"><g><path d="m7.678 6.064c-1.805 6.677-6.504 10.327-7.374 13.545s-.847 10.475 13.955 14.477 19.432-4.501 20.388-8.041c4.481-16.572-23.772-31.807-26.969-19.981z" fill="#efefef"/></g></g><g id="color"><g><path d="m29.25 8.75v18.5c0 1.1-.9 2-2 2h-13v-7.5h-7.5v-13c0-1.1.9-2 2-2h18.5c1.1 0 2 .9 2 2z" fill="#f3f3f1"/></g><g><path d="m14.25 21.75v7.5h-5.5c-1.1 0-2-.9-2-2v-5.5z" fill="#2fdf84"/></g><g><g><path d="m11.25 6.75h-2.5c-1.1 0-2 .9-2 2v13h2.5v-13c0-1.1.9-2 2-2z" fill="#d5dbe1"/></g></g><g><path d="m9.25 27.25v-5.5h-2.5v5.5c0 1.1.9 2 2 2h2.5c-1.1 0-2-.9-2-2z" fill="#00b871"/></g><g><g><path d="m27.556 2.967h1v2h-1z" fill="#a4afc1" transform="matrix(.707 -.707 .707 .707 5.412 21)"/></g><g><path d="m31.621 7.033h1v2h-1z" fill="#a4afc1" transform="matrix(.707 -.707 .707 .707 3.728 25.066)"/></g><g><path d="m30.944 3.467h2v1h-2z" fill="#a4afc1" transform="matrix(.707 -.707 .707 .707 6.551 23.75)"/></g></g></g><g id="regular"><g><path d="m27.25 30h-18.5c-1.517 0-2.75-1.233-2.75-2.75v-18.5c0-1.517 1.233-2.75 2.75-2.75h18.5c1.517 0 2.75 1.233 2.75 2.75v18.5c0 1.517-1.233 2.75-2.75 2.75zm-18.5-22.5c-.689 0-1.25.561-1.25 1.25v18.5c0 .689.561 1.25 1.25 1.25h18.5c.689 0 1.25-.561 1.25-1.25v-18.5c0-.689-.561-1.25-1.25-1.25z"/></g><g><path d="m26 17.25h-1.5v-5.75h-5.75v-1.5h6.5c.414 0 .75.336.75.75z"/></g><g><path d="m14.99 14.25h12.021v1.5h-12.021z" transform="matrix(.707 -.707 .707 .707 -4.456 19.243)"/></g><g><path d="m15 29.25h-1.5v-6.75h-6.75v-1.5h7.5c.414 0 .75.336.75.75z"/></g></g></svg>