<svg enable-background="new 0 0 36 36" height="512" viewBox="0 0 36 36" width="512" xmlns="http://www.w3.org/2000/svg"><g id="bg"><g><path d="m34.904 20.438c-3.782-5.791-3.38-11.727-5.203-14.518s-7.256-7.603-20.093.782-9.572 17.5-7.566 20.569c9.388 14.373 39.561 3.423 32.862-6.833z" fill="#efefef"/></g></g><g id="color"><g><path d="m27.25 19.75h-18.5c-.552 0-1-.448-1-1v-1.5c0-.552.448-1 1-1h18.5c.552 0 1 .448 1 1v1.5c0 .552-.448 1-1 1z" fill="#2fdf84"/></g><g><path d="m10 18.75v-1.5c0-.552.448-1 1-1h-2.25c-.552 0-1 .448-1 1v1.5c0 .552.448 1 1 1h2.25c-.552 0-1-.448-1-1z" fill="#00b871"/></g><g><path d="m6 15.5c-.827 0-1.5-.673-1.5-1.5s.673-1.5 1.5-1.5 1.5.673 1.5 1.5-.673 1.5-1.5 1.5zm0-2c-.275 0-.5.225-.5.5s.225.5.5.5.5-.225.5-.5-.225-.5-.5-.5z" fill="#a4afc1"/></g></g><g id="regular"><g><path d="m27.25 20.5h-18.5c-.965 0-1.75-.785-1.75-1.75v-1.5c0-.965.785-1.75 1.75-1.75h18.5c.965 0 1.75.785 1.75 1.75v1.5c0 .965-.785 1.75-1.75 1.75zm-18.5-3.5c-.138 0-.25.112-.25.25v1.5c0 .138.112.25.25.25h18.5c.138 0 .25-.112.25-.25v-1.5c0-.138-.112-.25-.25-.25z"/></g></g></svg>