<svg enable-background="new 0 0 36 36" height="512" viewBox="0 0 36 36" width="512" xmlns="http://www.w3.org/2000/svg"><g id="bg"><g><path d="m1.003 14.311c3.253 6.104 2.324 11.981 3.891 14.923s6.551 8.218 20.083 1.008 11.09-16.579 9.365-19.815c-8.072-15.151-39.1-6.927-33.339 3.884z" fill="#efefef"/></g></g><g id="color"><g><path d="m26.25 26.25c0 1.105-.895 2-2 2h-14.5c-1.105 0-2-.895-2-2v-14.5c0-1.105.895-2 2-2h14.5c1.105 0 2 .895 2 2z" fill="#f3f3f1"/></g><g><path d="m10 26.25v-14.5c0-1.105.895-2 2-2h-2.25c-1.105 0-2 .895-2 2v14.5c0 1.105.895 2 2 2h2.25c-1.105 0-2-.895-2-2z" fill="#d5dbe1"/></g><g><g><path d="m4.644 3.967h1v2h-1z" fill="#a4afc1" transform="matrix(.707 -.707 .707 .707 -2.006 5.093)"/></g><g><path d="m3.967 8.533h2v1h-2z" fill="#a4afc1" transform="matrix(.707 -.707 .707 .707 -4.933 6.158)"/></g><g><path d="m8.033 4.467h2v1h-2z" fill="#a4afc1" transform="matrix(.707 -.707 .707 .707 -.866 7.842)"/></g></g><g><path d="m30 31.5c-.827 0-1.5-.673-1.5-1.5s.673-1.5 1.5-1.5 1.5.673 1.5 1.5-.673 1.5-1.5 1.5zm0-2c-.276 0-.5.225-.5.5s.224.5.5.5.5-.225.5-.5-.224-.5-.5-.5z" fill="#a4afc1"/></g></g><g id="regular"><g><path d="m24.25 29h-14.5c-1.517 0-2.75-1.233-2.75-2.75v-14.5c0-1.517 1.233-2.75 2.75-2.75h9.5v1.5h-9.5c-.689 0-1.25.561-1.25 1.25v14.5c0 .689.561 1.25 1.25 1.25h14.5c.689 0 1.25-.561 1.25-1.25v-9.5h1.5v9.5c0 1.517-1.233 2.75-2.75 2.75z"/></g><g><path d="m29 14.25h-1.5v-5.75h-5.75v-1.5h6.5c.414 0 .75.336.75.75z"/></g><g><path d="m14.368 12.75h16.263v1.5h-16.263z" transform="matrix(.707 -.707 .707 .707 -2.956 19.864)"/></g></g></svg>