<svg enable-background="new 0 0 36 36" height="512" viewBox="0 0 36 36" width="512" xmlns="http://www.w3.org/2000/svg"><g id="bg"><g><path d="m34.928 20.591c-3.693-5.848-3.199-11.778-4.979-14.596s-7.138-7.714-20.103.473-9.84 17.35-7.882 20.45c9.166 14.515 39.504 4.031 32.964-6.327z" fill="#efefef"/></g></g><g id="color"><g><path d="m28.25 11.99-2.44 2.44-4.24-4.24 2.44-2.44c.78-.78 2.04-.78 2.83 0l1.41 1.41c.78.79.78 2.05 0 2.83z" fill="#2fdf84"/></g><g><path d="m25.81 14.43-13.41 13.41-5.65 1.41 1.41-5.65 13.41-13.41z" fill="#f3f3f1"/></g><g><path d="m10.66 23.6 12.16-12.16-1.25-1.25-13.41 13.41-1.41 5.65 2.666-.665z" fill="#d5dbe1"/></g><g><g><path d="m26.391 25.967h1v2h-1z" fill="#a4afc1" transform="matrix(.707 -.707 .707 .707 -11.193 26.906)"/></g><g><path d="m30.456 30.033h1v2h-1z" fill="#a4afc1" transform="matrix(.707 -.707 .707 .707 -12.877 30.979)"/></g><g><path d="m25.714 30.533h2v1h-2z" fill="#a4afc1" transform="matrix(.707 -.707 .707 .707 -14.119 27.979)"/></g><g><path d="m29.779 26.467h2v1h-2z" fill="#a4afc1" transform="matrix(.707 -.707 .707 .707 -10.054 29.663)"/></g></g><g><path d="m4.879 21.5c-.827 0-1.5-.673-1.5-1.5s.673-1.5 1.5-1.5 1.5.673 1.5 1.5-.673 1.5-1.5 1.5zm0-2c-.276 0-.5.224-.5.5s.224.5.5.5.5-.224.5-.5-.224-.5-.5-.5z" fill="#a4afc1"/></g><g><path d="m21.57 10.19 2.44-2.44c.729-.729 1.872-.768 2.664-.134-.055.044-.113.083-.164.134l-3.69 3.69z" fill="#00b871"/></g></g><g id="regular"><g><g><path d="m6.75 30c-.196 0-.388-.077-.53-.22-.186-.186-.261-.456-.197-.711l1.408-5.651c.033-.132.101-.253.197-.349l15.849-15.849c1.072-1.071 2.817-1.072 3.889 0l1.414 1.414c1.072 1.072 1.072 2.817 0 3.889l-6.25 6.25-1.061-1.061 6.25-6.25c.487-.487.487-1.281 0-1.768l-1.413-1.414c-.488-.488-1.281-.488-1.768 0l-15.703 15.702-1.056 4.238 4.238-1.056 8.323-8.324 1.061 1.061-8.47 8.471c-.096.096-.217.165-.349.197l-5.651 1.408c-.06.016-.12.023-.181.023z"/></g><g><path d="m22.939 9.311h1.5v6h-1.5z" transform="matrix(.707 -.707 .707 .707 -1.767 20.357)"/></g><g><path d="m9.53 22.72h1.5v6h-1.5z" transform="matrix(.707 -.707 .707 .707 -15.176 14.802)"/></g></g></g></svg>