<svg enable-background="new 0 0 36 36" height="512" viewBox="0 0 36 36" width="512" xmlns="http://www.w3.org/2000/svg"><g id="bg"><g><path d="m34.904 20.355c-3.782-5.791-3.38-11.727-5.203-14.518s-7.256-7.603-20.093.782-9.572 17.5-7.566 20.569c9.388 14.372 39.561 3.423 32.862-6.833z" fill="#efefef"/></g></g><g id="color"><g><circle cx="22.25" cy="13.75" fill="#2fdf84" r="7"/></g><g><path d="m17.5 13.75c0-3.482 2.545-6.362 5.875-6.901-.367-.06-.741-.099-1.125-.099-3.866 0-7 3.134-7 7s3.134 7 7 7c.384 0 .758-.039 1.125-.099-3.33-.539-5.875-3.419-5.875-6.901z" fill="#00b871"/></g><g><g><path d="m4.805 4.043h1v2h-1z" fill="#a4afc1" transform="matrix(.707 -.707 .707 .707 -2.013 5.229)"/></g><g><path d="m8.871 8.109h1v2h-1z" fill="#a4afc1" transform="matrix(.707 -.707 .707 .707 -3.697 9.297)"/></g><g><path d="m4.129 8.609h2v1h-2z" fill="#a4afc1" transform="matrix(.707 -.707 .707 .707 -4.939 6.295)"/></g><g><path d="m8.194 4.544h2v1h-2z" fill="#a4afc1" transform="matrix(.707 -.707 .707 .707 -.873 7.979)"/></g></g><g><path d="m5.056 21.5c-.827 0-1.5-.673-1.5-1.5s.673-1.5 1.5-1.5 1.5.673 1.5 1.5-.673 1.5-1.5 1.5zm0-2c-.276 0-.5.224-.5.5s.224.5.5.5.5-.224.5-.5-.224-.5-.5-.5z" fill="#a4afc1"/></g></g><g id="regular"><g><path d="m22.25 21.5c-4.273 0-7.75-3.477-7.75-7.75s3.477-7.75 7.75-7.75 7.75 3.477 7.75 7.75-3.477 7.75-7.75 7.75zm0-14c-3.446 0-6.25 2.804-6.25 6.25s2.804 6.25 6.25 6.25 6.25-2.804 6.25-6.25-2.804-6.25-6.25-6.25z"/></g><g><path d="m4.565 23.225h14.92v1.5h-14.92z" transform="matrix(.707 -.707 .707 .707 -13.431 15.525)"/></g><g><path d="m19 13.75h-1.5c0-2.619 2.131-4.75 4.75-4.75v1.5c-1.792 0-3.25 1.458-3.25 3.25z"/></g></g></svg>