<svg enable-background="new 0 0 36 36" height="512" viewBox="0 0 36 36" width="512" xmlns="http://www.w3.org/2000/svg"><g id="bg"><g><path d="m27.417 3.914c-6.915.129-11.732-3.365-15.064-3.302s-10.296 2.109-10.009 17.44 9.744 17.404 13.41 17.336c17.163-.321 23.911-31.703 11.663-31.474z" fill="#efefef"/></g></g><g id="color"><g><path d="m28.957 14.114c.391.391.391 1.024 0 1.414l-.977.977c-.485.485-1.201.654-1.852.437-.65-.217-1.367-.047-1.852.437l-2.866 2.866c-.375.375-.586.884-.586 1.414v1.171c0 .53-.211 1.039-.586 1.414l-.475.475c-.391.391-1.024.391-1.414 0l-7.071-7.071c-.391-.391-.391-1.024 0-1.414l.475-.475c.375-.375.884-.586 1.414-.586h1.171c.53 0 1.039-.211 1.414-.586l2.866-2.866c.485-.485.654-1.201.437-1.852-.217-.65-.047-1.367.437-1.852l.977-.977c.391-.391 1.024-.391 1.414 0z" fill="#f3f3f1"/></g><g><path d="m12.736 18.779.542-.542c.428-.428.988-.69 1.556-.727l1.254-.083c.568-.038 1.128-.299 1.556-.727l3.272-3.272c.553-.553.785-1.333.599-2.014s.046-1.46.599-2.014l1.064-1.064-1.293-1.293c-.391-.391-1.024-.391-1.414 0l-.976.977c-.485.485-.654 1.201-.437 1.852.217.65.047 1.367-.437 1.852l-2.866 2.866c-.375.375-.884.586-1.414.586h-1.171c-.53 0-1.039.211-1.414.586l-.475.475c-.391.391-.391 1.024 0 1.414l1.322 1.322c.043-.066.075-.136.133-.194z" fill="#d5dbe1"/></g><g><g><path d="m4.305 26.217h1v2h-1z" fill="#a4afc1" transform="matrix(.707 -.707 .707 .707 -17.838 11.37)"/></g><g><path d="m8.371 30.283h1v2h-1z" fill="#a4afc1" transform="matrix(.707 -.707 .707 .707 -19.522 15.436)"/></g><g><path d="m3.628 30.783h2v1h-2z" fill="#a4afc1" transform="matrix(.707 -.707 .707 .707 -20.765 12.436)"/></g></g><g><path d="m6.129 7.793c-.827 0-1.5-.673-1.5-1.5s.673-1.5 1.5-1.5 1.5.673 1.5 1.5-.673 1.5-1.5 1.5zm0-2c-.276 0-.5.224-.5.5s.224.5.5.5.5-.224.5-.5-.224-.5-.5-.5z" fill="#a4afc1"/></g></g><g id="regular"><g><path d="m19.058 25.764c-.467 0-.907-.182-1.237-.513l-7.071-7.071c-.331-.331-.513-.77-.513-1.237s.182-.907.513-1.237l.475-.475c.52-.52 1.21-.806 1.945-.806h1.171c.334 0 .648-.13.883-.366l2.867-2.867c.286-.286.384-.701.256-1.084-.308-.926-.071-1.93.619-2.619l.977-.977c.683-.682 1.792-.683 2.475 0l7.071 7.071c.683.682.683 1.793 0 2.475l-.977.977c-.689.69-1.695.926-2.619.619-.383-.127-.798-.03-1.084.256l-2.867 2.866c-.236.236-.366.55-.366.884v1.171c0 .735-.286 1.425-.806 1.945l-.475.475c-.331.331-.77.513-1.237.513zm-5.89-9.839c-.334 0-.648.13-.884.366l-.475.475c-.097.098-.097.256 0 .354l7.071 7.071c.098.098.256.098.354 0l.475-.475c.236-.236.366-.55.366-.884v-1.172c0-.735.286-1.426.806-1.945l2.866-2.866c.689-.691 1.692-.927 2.619-.619.384.127.799.029 1.084-.256l.977-.977c.098-.098.098-.256 0-.354l-7.071-7.071c-.098-.098-.257-.097-.354 0l-.977.978c-.286.286-.384.701-.256 1.084.309.926.072 1.929-.619 2.619l-2.866 2.866c-.519.52-1.209.806-1.944.806z"/></g><g><path d="m5.082 24.47h11.406v1.5h-11.406z" transform="matrix(.708 -.707 .707 .708 -14.665 14.989)"/></g></g></svg>