<svg enable-background="new 0 0 36 36" height="512" viewBox="0 0 36 36" width="512" xmlns="http://www.w3.org/2000/svg"><g id="bg"><g><path d="m26.982 3.997c-6.916.13-11.732-3.364-15.065-3.302s-10.296 2.11-10.009 17.44 9.744 17.404 13.41 17.336c17.164-.321 23.911-31.703 11.664-31.474z" fill="#efefef"/></g></g><g id="color"><g><path d="m27.25 16.25h-7.5v-7.5c0-.552-.448-1-1-1h-1.5c-.552 0-1 .448-1 1v7.5h-7.5c-.552 0-1 .448-1 1v1.5c0 .552.448 1 1 1h7.5v7.5c0 .552.448 1 1 1h1.5c.552 0 1-.448 1-1v-7.5h7.5c.552 0 1-.448 1-1v-1.5c0-.552-.448-1-1-1z" fill="#2fdf84"/></g><g><g><path d="m10 18.75v-1.5c0-.552.448-1 1-1h-2.25c-.552 0-1 .448-1 1v1.5c0 .552.448 1 1 1h2.25c-.552 0-1-.448-1-1z" fill="#00b871"/></g></g><g><path d="m30.694 14.5c-.827 0-1.5-.673-1.5-1.5s.673-1.5 1.5-1.5 1.5.673 1.5 1.5-.673 1.5-1.5 1.5zm0-2c-.275 0-.5.225-.5.5s.225.5.5.5.5-.225.5-.5-.224-.5-.5-.5z" fill="#a4afc1"/></g></g><g id="regular"><g><path d="m18.75 29h-1.5c-.965 0-1.75-.785-1.75-1.75v-6.75h-6.75c-.965 0-1.75-.785-1.75-1.75v-1.5c0-.965.785-1.75 1.75-1.75h6.75v-6.75c0-.965.785-1.75 1.75-1.75h1.5c.965 0 1.75.785 1.75 1.75v6.75h6.75c.965 0 1.75.785 1.75 1.75v1.5c0 .965-.785 1.75-1.75 1.75h-6.75v6.75c0 .965-.785 1.75-1.75 1.75zm-10-12c-.138 0-.25.112-.25.25v1.5c0 .138.112.25.25.25h7.5c.414 0 .75.336.75.75v7.5c0 .138.112.25.25.25h1.5c.138 0 .25-.112.25-.25v-7.5c0-.414.336-.75.75-.75h7.5c.138 0 .25-.112.25-.25v-1.5c0-.138-.112-.25-.25-.25h-7.5c-.414 0-.75-.336-.75-.75v-7.5c0-.138-.112-.25-.25-.25h-1.5c-.138 0-.25.112-.25.25v7.5c0 .414-.336.75-.75.75z"/></g></g></svg>