<svg enable-background="new 0 0 36 36" height="512" viewBox="0 0 36 36" width="512" xmlns="http://www.w3.org/2000/svg"><g id="bg"><g><path d="m4.167 27.623c0-6.917-3.583-11.667-3.583-15s1.916-10.333 17.249-10.333 17.583 9.417 17.583 13.083c.001 17.167-31.249 24.5-31.249 12.25z" fill="#efefef"/></g></g><g id="color"><g><path d="m27.25 12.75h-18.5c-1.1 0-2 .9-2 2v6.5c0 1.1.9 2 2 2h2 14.5 2c1.1 0 2-.9 2-2v-6.5c0-1.1-.9-2-2-2z" fill="#2fdf84"/></g><g><path d="m9 21.25v-6.5c0-1.1.9-2 2-2h-2.25c-1.1 0-2 .9-2 2v6.5c0 1.1.9 2 2 2h2 .25c-1.1 0-2-.9-2-2z" fill="#00b871"/></g><g><path d="m24.371 9.121-1.493-1.493c-.563-.563-1.326-.879-2.121-.879h-8.007c-1.105 0-2 .895-2 2v4h14.5v-1.507c0-.795-.316-1.558-.879-2.121z" fill="#f3f3f1"/></g><g><path d="m15 6.75h-2.25c-1.105 0-2 .895-2 2v4h2.25v-4c0-1.105.895-2 2-2z" fill="#d5dbe1"/></g><g><path d="m23.25 29.25h-10.5c-1.105 0-2-.895-2-2v-7.5h14.5v7.5c0 1.105-.895 2-2 2z" fill="#f3f3f1"/></g><g><path d="m13 27.25v-7.5h-2.25v7.5c0 1.105.895 2 2 2h2.25c-1.105 0-2-.895-2-2z" fill="#d5dbe1"/></g><g><path d="m20 24-3.03 3.47-1.97-1.97-3.392 3.392 12.714.047z" fill="#2fdf84"/></g><g><g><path d="m30.194 8.121h1v2h-1z" fill="#a4afc1" transform="matrix(.707 -.707 .707 .707 2.538 24.371)"/></g><g><path d="m26.129 4.055h1v2h-1z" fill="#a4afc1" transform="matrix(.707 -.707 .707 .707 4.222 20.306)"/></g><g><path d="m29.871 4.555h2v1h-2z" fill="#a4afc1" transform="matrix(.707 -.707 .707 .707 5.467 23.31)"/></g></g><g><path d="m6 7.25c-.827 0-1.5-.673-1.5-1.5s.673-1.5 1.5-1.5 1.5.673 1.5 1.5-.673 1.5-1.5 1.5zm0-2c-.275 0-.5.224-.5.5s.225.5.5.5.5-.224.5-.5-.225-.5-.5-.5z" fill="#a4afc1"/></g></g><g id="regular"><g><path d="m27.25 24h-2v-1.5h2c.689 0 1.25-.561 1.25-1.25v-6.5c0-.689-.561-1.25-1.25-1.25h-18.5c-.689 0-1.25.561-1.25 1.25v6.5c0 .689.561 1.25 1.25 1.25h2v1.5h-2c-1.517 0-2.75-1.233-2.75-2.75v-6.5c0-1.517 1.233-2.75 2.75-2.75h18.5c1.517 0 2.75 1.233 2.75 2.75v6.5c0 1.517-1.233 2.75-2.75 2.75z"/></g><g><path d="m23.25 30h-10.5c-1.517 0-2.75-1.233-2.75-2.75v-7.5c0-.414.336-.75.75-.75h14.5c.414 0 .75.336.75.75v7.5c0 1.517-1.233 2.75-2.75 2.75zm-11.75-9.5v6.75c0 .689.561 1.25 1.25 1.25h10.5c.689 0 1.25-.561 1.25-1.25v-6.75z"/></g><g><path d="m23.757 29.433-3.756-4.293-2.467 2.824c-.136.157-.332.25-.539.256-.209.009-.409-.072-.556-.219l-1.439-1.44-.97.97-1.06-1.061 1.5-1.5c.141-.141.331-.22.53-.22.199 0 .39.079.53.22l1.402 1.403 2.503-2.866c.142-.163.348-.257.564-.257.216 0 .422.093.564.256l4.321 4.939z"/></g><g><path d="m26 12.75h-1.5v-4c0-.689-.561-1.25-1.25-1.25h-10.5c-.689 0-1.25.561-1.25 1.25v4h-1.5v-4c0-1.517 1.233-2.75 2.75-2.75h10.5c1.517 0 2.75 1.233 2.75 2.75z"/></g></g></svg>