<svg enable-background="new 0 0 36 36" height="512" viewBox="0 0 36 36" width="512" xmlns="http://www.w3.org/2000/svg"><g id="bg"><g><path d="m8.114 5.564c-1.805 6.677-6.504 10.327-7.374 13.545s-.847 10.475 13.955 14.477 19.432-4.501 20.388-8.041c4.481-16.572-23.772-31.807-26.969-19.981z" fill="#efefef"/></g></g><g id="color"><g><circle cx="18" cy="18" fill="#2fdf84" r="11.25"/></g><g><path d="m9 18c0-5.833 4.44-10.629 10.125-11.193-.37-.037-.745-.057-1.125-.057-6.213 0-11.25 5.037-11.25 11.25s5.037 11.25 11.25 11.25c.38 0 .755-.02 1.125-.057-5.685-.564-10.125-5.36-10.125-11.193z" fill="#00b871"/></g><g><circle cx="18" cy="24" fill="#f3f3f1" r="1"/></g><g><g><path d="m8.033 4.805h2v1h-2z" fill="#a4afc1" transform="matrix(.707 -.707 .707 .707 -1.106 7.941)"/></g><g><path d="m3.967 8.871h2v1h-2z" fill="#a4afc1" transform="matrix(.707 -.707 .707 .707 -5.172 6.257)"/></g><g><path d="m4.467 4.129h1v2h-1z" fill="#a4afc1" transform="matrix(.707 -.707 .707 .707 -2.172 5.013)"/></g></g></g><g id="regular"><g><path d="m18 25.5c-.827 0-1.5-.673-1.5-1.5s.673-1.5 1.5-1.5 1.5.673 1.5 1.5-.673 1.5-1.5 1.5zm0-2c-.275 0-.5.224-.5.5s.225.5.5.5.5-.224.5-.5-.225-.5-.5-.5z"/></g><g><path d="m18 30c-6.617 0-12-5.383-12-12s5.383-12 12-12 12 5.383 12 12-5.383 12-12 12zm0-22.5c-5.79 0-10.5 4.71-10.5 10.5s4.71 10.5 10.5 10.5 10.5-4.71 10.5-10.5-4.71-10.5-10.5-10.5z"/></g><g><path d="m18.75 20h-1.5v-1.01c0-.952.604-1.805 1.502-2.122 1.195-.421 1.998-1.694 1.998-2.618 0-1.517-1.233-2.75-2.75-2.75s-2.75 1.233-2.75 2.75h-1.5c0-2.343 1.906-4.25 4.25-4.25s4.25 1.907 4.25 4.25c0 1.668-1.317 3.439-2.999 4.033-.3.105-.501.39-.501.708z"/></g></g></svg>