<svg enable-background="new 0 0 36 36" height="512" viewBox="0 0 36 36" width="512" xmlns="http://www.w3.org/2000/svg"><g id="bg"><g><path d="m24.138 1.14c-6.592 2.097-12.204.122-15.381 1.132s-9.266 4.958-4.619 19.57 14.303 13.902 17.797 12.791c16.359-5.202 13.877-37.205 2.203-33.493z" fill="#efefef"/></g></g><g id="color"><g><path d="m27.25 29.25h-18.5c-1.105 0-2-.895-2-2v-18.5c0-1.105.895-2 2-2h18.5c1.105 0 2 .895 2 2v18.5c0 1.105-.895 2-2 2z" fill="#2fdf84"/></g><g><path d="m9 27.25v-18.5c0-1.105.895-2 2-2h-2.25c-1.105 0-2 .895-2 2v18.5c0 1.105.895 2 2 2h2.25c-1.105 0-2-.895-2-2z" fill="#00b871"/></g><g><circle cx="18" cy="24" fill="#f3f3f1" r="1"/></g><g><g><path d="m6.625 3.26h1v2h-1z" fill="#a4afc1"/></g><g><path d="m3.125 6.51h2v1h-2z" fill="#a4afc1"/></g></g></g><g id="regular"><g><path d="m18 25.5c-.827 0-1.5-.673-1.5-1.5s.673-1.5 1.5-1.5 1.5.673 1.5 1.5-.673 1.5-1.5 1.5zm0-2c-.276 0-.5.225-.5.5s.224.5.5.5.5-.225.5-.5-.224-.5-.5-.5z"/></g><g><path d="m18.75 20h-1.5v-1.01c0-.952.604-1.805 1.501-2.122 1.196-.422 1.999-1.694 1.999-2.618 0-1.517-1.233-2.75-2.75-2.75s-2.75 1.233-2.75 2.75h-1.5c0-2.344 1.907-4.25 4.25-4.25s4.25 1.906 4.25 4.25c0 1.668-1.317 3.439-2.999 4.032-.299.106-.501.391-.501.708z"/></g><g><path d="m27.25 30h-18.5c-1.517 0-2.75-1.233-2.75-2.75v-18.5c0-1.517 1.233-2.75 2.75-2.75h18.5c1.517 0 2.75 1.233 2.75 2.75v18.5c0 1.517-1.233 2.75-2.75 2.75zm-18.5-22.5c-.689 0-1.25.561-1.25 1.25v18.5c0 .689.561 1.25 1.25 1.25h18.5c.689 0 1.25-.561 1.25-1.25v-18.5c0-.689-.561-1.25-1.25-1.25z"/></g><g><path d="m2 28.5h32v1.5h-32z"/></g></g></svg>