<svg enable-background="new 0 0 36 36" height="512" viewBox="0 0 36 36" width="512" xmlns="http://www.w3.org/2000/svg"><g id="bg"><g><path d="m27.381 30.742c2.012-6.618 6.822-10.12 7.792-13.309s1.172-10.444-13.498-14.905-19.562 3.894-20.628 7.402c-4.994 16.424 22.771 32.532 26.334 20.812z" fill="#efefef"/></g></g><g id="color"><g><path d="m22.256 7.76h-8.491l-6.005 6.005v8.491l6.005 6.004h8.491l6.004-6.004v-8.491z" fill="#f3f3f1"/></g><g><path d="m10.01 13.765 6.005-6.005h-2.25l-6.005 6.005v8.491l6.005 6.004h2.25l-6.005-6.004z" fill="#d5dbe1"/></g><g><path d="m7 31.5c-.827 0-1.5-.673-1.5-1.5s.673-1.5 1.5-1.5 1.5.673 1.5 1.5-.673 1.5-1.5 1.5zm0-2c-.275 0-.5.225-.5.5s.225.5.5.5.5-.225.5-.5-.225-.5-.5-.5z" fill="#a4afc1"/></g></g><g id="regular"><g><path d="m12.751 17.25h10.499v1.5h-10.499z" transform="matrix(.707 -.707 .707 .707 -7.456 18)"/></g><g><path d="m17.25 12.751h1.5v10.499h-1.5z" transform="matrix(.707 -.707 .707 .707 -7.456 18)"/></g><g><path d="m22.256 29.01h-8.491c-.199 0-.39-.079-.53-.22l-6.005-6.004c-.141-.141-.22-.331-.22-.53v-8.491c0-.199.079-.39.22-.53l6.005-6.005c.141-.141.331-.22.53-.22h8.491c.199 0 .39.079.53.22l6.004 6.005c.141.141.22.331.22.53v8.491c0 .199-.079.39-.22.53l-6.004 6.004c-.14.141-.331.22-.53.22zm-8.181-1.5h7.87l5.564-5.564v-7.87l-5.564-5.566h-7.87l-5.565 5.565v7.87z"/></g></g></svg>