<svg enable-background="new 0 0 36 36" height="512" viewBox="0 0 36 36" width="512" xmlns="http://www.w3.org/2000/svg"><g id="bg"><g><path d="m34.904 20.438c-3.782-5.791-3.38-11.727-5.203-14.518s-7.256-7.603-20.093.782-9.572 17.5-7.566 20.569c9.388 14.373 39.561 3.423 32.862-6.833z" fill="#efefef"/></g></g><g id="color"><g><circle cx="25.25" cy="9.75" fill="#2fdf84" r="3"/></g><g><circle cx="25.25" cy="26.25" fill="#2fdf84" r="3"/></g><g><circle cx="10.75" cy="18" fill="#2fdf84" r="3"/></g><g><path d="m24.5 9.75c0-1.258.776-2.332 1.875-2.777-.348-.142-.727-.223-1.125-.223-1.657 0-3 1.343-3 3s1.343 3 3 3c.398 0 .777-.081 1.125-.223-1.099-.445-1.875-1.519-1.875-2.777z" fill="#00b871"/></g><g><path d="m24.5 26.25c0-1.258.776-2.332 1.875-2.777-.348-.141-.727-.223-1.125-.223-1.657 0-3 1.343-3 3s1.343 3 3 3c.398 0 .777-.081 1.125-.223-1.099-.445-1.875-1.519-1.875-2.777z" fill="#00b871"/></g><g><path d="m10 18c0-1.258.776-2.332 1.875-2.777-.348-.142-.727-.223-1.125-.223-1.657 0-3 1.343-3 3s1.343 3 3 3c.398 0 .777-.081 1.125-.223-1.099-.445-1.875-1.519-1.875-2.777z" fill="#00b871"/></g><g><g><path d="m4.727 25.967h1v2h-1z" fill="#a4afc1" transform="matrix(.707 -.707 .707 .707 -17.543 11.602)"/></g><g><path d="m8.793 30.033h1v2h-1z" fill="#a4afc1" transform="matrix(.707 -.707 .707 .707 -19.222 15.661)"/></g><g><path d="m4.05 30.533h2v1h-2z" fill="#a4afc1" transform="matrix(.707 -.707 .707 .707 -20.465 12.661)"/></g><g><path d="m8.116 26.467h2v1h-2z" fill="#a4afc1" transform="matrix(.707 -.707 .707 .707 -16.398 14.345)"/></g></g></g><g id="regular"><g><path d="m25.25 13.5c-2.067 0-3.75-1.683-3.75-3.75s1.683-3.75 3.75-3.75 3.75 1.683 3.75 3.75-1.683 3.75-3.75 3.75zm0-6c-1.24 0-2.25 1.01-2.25 2.25s1.01 2.25 2.25 2.25 2.25-1.01 2.25-2.25-1.01-2.25-2.25-2.25z"/></g><g><path d="m25.25 30c-2.067 0-3.75-1.683-3.75-3.75s1.683-3.75 3.75-3.75 3.75 1.683 3.75 3.75-1.683 3.75-3.75 3.75zm0-6c-1.24 0-2.25 1.01-2.25 2.25s1.01 2.25 2.25 2.25 2.25-1.01 2.25-2.25-1.01-2.25-2.25-2.25z"/></g><g><path d="m10.75 21.75c-2.067 0-3.75-1.683-3.75-3.75s1.683-3.75 3.75-3.75 3.75 1.683 3.75 3.75-1.683 3.75-3.75 3.75zm0-6c-1.24 0-2.25 1.01-2.25 2.25s1.01 2.25 2.25 2.25 2.25-1.01 2.25-2.25-1.01-2.25-2.25-2.25z"/></g><g><path d="m12.66 13.125h10.681v1.499h-10.681z" transform="matrix(.869 -.495 .495 .869 -4.508 10.73)"/></g><g><path d="m17.25 16.785h1.499v10.681h-1.499z" transform="matrix(.495 -.869 .869 .495 -10.135 26.807)"/></g></g></svg>