<svg enable-background="new 0 0 36 36" height="512" viewBox="0 0 36 36" width="512" xmlns="http://www.w3.org/2000/svg"><g id="bg"><g><path d="m4.167 27.707c0-6.917-3.583-11.667-3.583-15s1.916-10.334 17.249-10.334 17.583 9.417 17.583 13.083c.001 17.167-31.249 24.501-31.249 12.251z" fill="#efefef"/></g></g><g id="color"><g><path d="m23.25 21.25v-1.5c0-4.971-4.029-9-9-9h-1v-4l-6.5 6.75 6.5 6.75v-4h1.938c3.409 0 6.525 1.926 8.05 4.975z" fill="#2fdf84"/></g><g><g><path d="m17.438 16.25h-1.938v.022c3.285.115 6.26 1.998 7.738 4.953l.012.025v-1.5c0-.504-.052-.994-.131-1.475-1.578-1.284-3.572-2.025-5.681-2.025z" fill="#00b871"/></g><g><path d="m9 13.5 4.25-4.413v-2.337l-6.5 6.75 6.5 6.75v-2.337z" fill="#00b871"/></g></g><g><path d="m6 7.5c-.827 0-1.5-.673-1.5-1.5s.673-1.5 1.5-1.5 1.5.673 1.5 1.5-.673 1.5-1.5 1.5zm0-2c-.275 0-.5.225-.5.5s.225.5.5.5.5-.225.5-.5-.225-.5-.5-.5z" fill="#a4afc1"/></g><g><g><path d="m26.806 3.717h1v2h-1z" fill="#a4afc1" transform="matrix(.707 -.707 .707 .707 4.662 20.69)"/></g><g><path d="m30.871 7.783h1v2h-1z" fill="#a4afc1" transform="matrix(.707 -.707 .707 .707 2.978 24.755)"/></g><g><path d="m30.194 4.217h2v1h-2z" fill="#a4afc1" transform="matrix(.707 -.707 .707 .707 5.801 23.439)"/></g></g></g><g id="regular"><g><path d="m27.25 30h-18.5c-1.517 0-2.75-1.233-2.75-2.75v-8.5h1.5v8.5c0 .689.561 1.25 1.25 1.25h18.5c.689 0 1.25-.561 1.25-1.25v-14.5c0-.689-.561-1.25-1.25-1.25h-3.5v-1.5h3.5c1.517 0 2.75 1.233 2.75 2.75v14.5c0 1.517-1.233 2.75-2.75 2.75z"/></g><g><path d="m23.25 22c-.279 0-.542-.156-.671-.415l-.013-.025c-1.406-2.813-4.233-4.56-7.378-4.56h-1.188v3.25c0 .306-.186.581-.47.695-.282.116-.608.046-.82-.175l-6.5-6.75c-.28-.291-.28-.75 0-1.041l6.5-6.75c.211-.221.537-.291.82-.175.284.115.47.39.47.696v3.25h.25c5.376 0 9.75 4.374 9.75 9.75v1.5c0 .348-.239.65-.578.729-.057.014-.115.021-.172.021zm-10-6.5h1.938c2.823 0 5.43 1.191 7.249 3.221-.509-4.065-3.987-7.221-8.187-7.221h-1c-.414 0-.75-.336-.75-.75v-2.14l-4.709 4.89 4.709 4.89v-2.14c0-.414.336-.75.75-.75z"/></g></g></svg>