<svg enable-background="new 0 0 36 36" height="512" viewBox="0 0 36 36" width="512" xmlns="http://www.w3.org/2000/svg"><g id="bg"><g><path d="m8.377 4.25c6.917 0 11.667-3.583 15-3.583s10.333 1.916 10.333 17.25-9.417 17.583-13.083 17.583c-17.167 0-24.5-31.25-12.25-31.25z" fill="#efefef"/></g></g><g id="color"><g><path d="m12.75 21.25v-1.5c0-4.971 4.029-9 9-9h1v-4l6.5 6.75-6.5 6.75v-4h-1.938c-3.409 0-6.525 1.926-8.05 4.975z" fill="#2fdf84"/></g><g><g><path d="m24 10.75h1v-1.663l-2.25-2.337v4h-1c-4.971 0-9 4.029-9 9v1.5l.012-.025c.581-1.163 1.397-2.159 2.369-2.95.705-4.267 4.402-7.525 8.869-7.525z" fill="#00b871"/></g></g><g><path d="m31 10.283c-.827 0-1.5-.673-1.5-1.5s.673-1.5 1.5-1.5 1.5.673 1.5 1.5-.673 1.5-1.5 1.5zm0-2c-.275 0-.5.225-.5.5s.225.5.5.5.5-.225.5-.5-.225-.5-.5-.5z" fill="#a4afc1"/></g><g><g><path d="m3.717 8.033h2v1h-2z" fill="#a4afc1" transform="matrix(.707 -.707 .707 .707 -4.652 5.835)"/></g><g><path d="m7.783 3.967h2v1h-2z" fill="#a4afc1" transform="matrix(.707 -.707 .707 .707 -.586 7.519)"/></g><g><path d="m4.217 3.644h1v2h-1z" fill="#a4afc1" transform="matrix(.707 -.707 .707 .707 -1.902 4.695)"/></g></g></g><g id="regular"><g><path d="m27.25 30h-18.5c-1.517 0-2.75-1.233-2.75-2.75v-14.5c0-1.517 1.233-2.75 2.75-2.75h3.5v1.5h-3.5c-.689 0-1.25.561-1.25 1.25v14.5c0 .689.561 1.25 1.25 1.25h18.5c.689 0 1.25-.561 1.25-1.25v-8.5h1.5v8.5c0 1.517-1.233 2.75-2.75 2.75z"/></g><g><path d="m12.749 21.986c-.055 0-.11-.006-.165-.02-.339-.078-.584-.368-.584-.716v-1.5c0-5.376 4.374-9.75 9.75-9.75h.25v-3.25c0-.306.186-.581.47-.695.283-.115.609-.045.82.175l6.5 6.75c.28.291.28.75 0 1.041l-6.5 6.75c-.212.221-.538.289-.82.175-.284-.115-.47-.39-.47-.696v-3.25h-1.188c-3.146 0-5.973 1.747-7.379 4.56-.13.26-.401.426-.684.426zm9.001-10.486c-4.2 0-7.678 3.156-8.187 7.221 1.819-2.029 4.426-3.221 7.249-3.221h1.938c.414 0 .75.336.75.75v2.14l4.709-4.89-4.709-4.89v2.14c0 .414-.336.75-.75.75z"/></g></g></svg>