<svg enable-background="new 0 0 36 36" height="512" viewBox="0 0 36 36" width="512" xmlns="http://www.w3.org/2000/svg"><g id="bg"><g><path d="m13.411 35.499c6.298-2.859 12.105-1.559 15.14-2.936 3.035-1.378 8.617-6.016 2.28-19.978s-15.841-12.12-19.18-10.605c-15.632 7.095-9.395 38.582 1.76 33.519z" fill="#efefef"/></g></g><g id="color"><g><circle cx="18" cy="18" fill="#2fdf84" r="2.25"/></g><g><path d="m18 18c0-.831.455-1.548 1.125-1.938-.332-.193-.713-.312-1.125-.312-1.243 0-2.25 1.007-2.25 2.25s1.007 2.25 2.25 2.25c.412 0 .793-.119 1.125-.312-.67-.39-1.125-1.107-1.125-1.938z" fill="#00b871"/></g><g><g><path d="m19.621 30.23h1v2h-1z" fill="#a4afc1" transform="matrix(.707 -.707 .707 .707 -16.191 23.381)"/></g><g><path d="m14.879 30.731h2v1h-2z" fill="#a4afc1" transform="matrix(.707 -.707 .707 .707 -17.433 20.375)"/></g></g></g><g id="regular"><g><path d="m17.25 20.5h1.5v8.75h-1.5z"/></g><g><path d="m18 21c-1.654 0-3-1.346-3-3s1.346-3 3-3 3 1.346 3 3-1.346 3-3 3zm0-4.5c-.827 0-1.5.673-1.5 1.5s.673 1.5 1.5 1.5 1.5-.673 1.5-1.5-.673-1.5-1.5-1.5z"/></g><g><path d="m26.479 26.481-1.059-1.062c1.987-1.977 3.08-4.611 3.08-7.419 0-5.79-4.71-10.5-10.5-10.5s-10.5 4.71-10.5 10.5c0 2.808 1.093 5.442 3.079 7.419l-1.059 1.062c-2.27-2.258-3.52-5.271-3.52-8.481 0-6.617 5.383-12 12-12s12 5.383 12 12c0 3.21-1.25 6.223-3.521 8.481z"/></g><g><path d="m23.648 23.652-1.057-1.064c1.231-1.222 1.909-2.852 1.909-4.588 0-3.584-2.916-6.5-6.5-6.5s-6.5 2.916-6.5 6.5c0 1.736.678 3.366 1.908 4.588l-1.057 1.064c-1.516-1.506-2.351-3.512-2.351-5.652 0-4.411 3.589-8 8-8s8 3.589 8 8c0 2.14-.835 4.146-2.352 5.652z"/></g></g></svg>