<svg enable-background="new 0 0 36 36" height="512" viewBox="0 0 36 36" width="512" xmlns="http://www.w3.org/2000/svg"><g id="bg"><g><path d="m8.377 4.167c6.917 0 11.667-3.583 15-3.583s10.333 1.916 10.333 17.249-9.417 17.583-13.083 17.583c-17.167.001-24.5-31.249-12.25-31.249z" fill="#efefef"/></g></g><g id="color"><g><path d="m17.731 25.033-6.089 3.641c-.397.237-.884-.117-.782-.569l1.573-6.93c.043-.189-.021-.386-.166-.513l-5.337-4.68c-.348-.305-.162-.879.299-.921l7.062-.642c.192-.017.36-.139.436-.317l2.791-6.533c.182-.426.784-.426.966 0l2.791 6.533c.076.178.243.3.436.317l7.062.642c.46.042.646.616.299.921l-5.337 4.679c-.145.127-.209.325-.166.513l1.573 6.93c.103.452-.385.806-.782.569l-6.089-3.641c-.168-.098-.374-.098-.54.001z" fill="#2fdf84"/></g><g><g><path d="m14.683 21.175c.043-.189-.021-.386-.166-.513l-5.337-4.68c-.348-.305-.162-.879.299-.921l6.803-.061c.192-.017.36-.139.436-.317l2.407-5.611-.642-1.503c-.182-.426-.784-.426-.966 0l-2.791 6.533c-.076.178-.243.3-.436.317l-7.062.642c-.46.042-.646.616-.299.921l5.337 4.679c.145.127.209.325.166.513l-1.573 6.93c-.103.452.385.806.782.569l1.55-.927z" fill="#00b871"/></g><g><path d="m20.519 25.033c-.166-.099-.373-.099-.538 0l-.856.512 5.233 3.13c.397.237.884-.117.782-.569l-.081-.358z" fill="#00b871"/></g></g><g><g><path d="m4.589 4.217h1v2h-1z" fill="#a4afc1" transform="matrix(.707 -.707 .707 .707 -2.199 5.125)"/></g><g><path d="m8.654 8.283h1v2h-1z" fill="#a4afc1" transform="matrix(.707 -.707 .707 .707 -3.883 9.19)"/></g><g><path d="m3.912 8.783h2v1h-2z" fill="#a4afc1" transform="matrix(.707 -.707 .707 .707 -5.125 6.192)"/></g><g><path d="m7.977 4.717h2v1h-2z" fill="#a4afc1" transform="matrix(.707 -.707 .707 .707 -1.06 7.876)"/></g></g><g><path d="m30.871 12c-.827 0-1.5-.673-1.5-1.5s.673-1.5 1.5-1.5 1.5.673 1.5 1.5-.673 1.5-1.5 1.5zm0-2c-.275 0-.5.224-.5.5s.225.5.5.5.5-.224.5-.5-.225-.5-.5-.5z" fill="#a4afc1"/></g></g><g id="regular"><g><path d="m11.372 29.499c-.263 0-.524-.082-.747-.243-.415-.301-.609-.818-.496-1.317l1.544-6.801-5.236-4.592c-.385-.336-.531-.869-.373-1.355.157-.486.588-.831 1.097-.877l6.928-.629 2.739-6.41c.201-.471.661-.775 1.172-.775s.971.304 1.173.774l2.739 6.411 1.155.105-.135 1.494-1.29-.117c-.471-.043-.876-.339-1.06-.773l-2.582-6.047-2.585 6.05c-.182.431-.587.727-1.057.77l-6.542.594 4.944 4.336c.354.31.509.786.404 1.244l-1.457 6.419 5.638-3.371c.404-.241.904-.241 1.309 0l5.638 3.372-1.457-6.419c-.104-.457.051-.934.404-1.243l4.944-4.336-3.252-.295.137-1.494 3.771.343c.509.046.939.391 1.097.877s.012 1.019-.373 1.355l-5.236 4.591 1.544 6.801c.113.5-.081 1.017-.496 1.317-.414.3-.966.323-1.402.061l-5.973-3.573-5.974 3.572c-.202.12-.427.181-.654.181zm2.663-15.69s0 .001-.001.002zm7.928-.003.001.002c0-.001 0-.001-.001-.002z"/></g></g></svg>