<svg enable-background="new 0 0 36 36" height="512" viewBox="0 0 36 36" width="512" xmlns="http://www.w3.org/2000/svg"><g id="bg"><g><path d="m34.904 20.355c-3.782-5.791-3.38-11.727-5.203-14.518s-7.256-7.603-20.093.782-9.572 17.5-7.566 20.569c9.388 14.372 39.561 3.423 32.862-6.833z" fill="#efefef"/></g></g><g id="color"><g><path d="m9.75 14.25v13c0 1.1.9 2 2 2h12.5c1.1 0 2-.9 2-2v-13z" fill="#f3f3f1"/></g><g><path d="m28.25 14.25h-20.5v-2.5c0-1.105.895-2 2-2h16.5c1.105 0 2 .895 2 2z" fill="#2fdf84"/></g><g><path d="m12 27.25v-13h-2.25v13c0 1.1.9 2 2 2h2.25c-1.1 0-2-.9-2-2z" fill="#d5dbe1"/></g><g><path d="m12 9.75h-2.25c-1.105 0-2 .895-2 2v2.5h2.25v-2.5c0-1.105.895-2 2-2z" fill="#00b871"/></g><g><g><path d="m4.598 4.131h1v2h-1z" fill="#a4afc1" transform="matrix(.707 -.707 .707 .707 -2.135 5.109)"/></g><g><path d="m3.922 8.697h2v1h-2z" fill="#a4afc1" transform="matrix(.707 -.707 .707 .707 -5.062 6.174)"/></g><g><path d="m7.987 4.631h2v1h-2z" fill="#a4afc1" transform="matrix(.707 -.707 .707 .707 -.996 7.858)"/></g></g><g><path d="m27.75 6.145c-.827 0-1.5-.673-1.5-1.5s.673-1.5 1.5-1.5 1.5.673 1.5 1.5-.673 1.5-1.5 1.5zm0-2c-.276 0-.5.224-.5.5s.224.5.5.5.5-.224.5-.5-.224-.5-.5-.5z" fill="#a4afc1"/></g></g><g id="regular"><g><path d="m24.25 30h-12.5c-1.517 0-2.75-1.233-2.75-2.75v-13h1.5v13c0 .689.561 1.25 1.25 1.25h12.5c.689 0 1.25-.561 1.25-1.25v-13h1.5v13c0 1.517-1.233 2.75-2.75 2.75z"/></g><g><path d="m28.25 15h-4.75v-1.5h4v-1.75c0-.689-.561-1.25-1.25-1.25h-16.5c-.689 0-1.25.561-1.25 1.25v1.75h13.5v1.5h-14.25c-.414 0-.75-.336-.75-.75v-2.5c0-1.517 1.233-2.75 2.75-2.75h16.5c1.517 0 2.75 1.233 2.75 2.75v2.5c0 .414-.336.75-.75.75z"/></g><g><path d="m23 9.75h-1.5v-2c0-.138-.112-.25-.25-.25h-6.5c-.138 0-.25.112-.25.25v2h-1.5v-2c0-.965.785-1.75 1.75-1.75h6.5c.965 0 1.75.785 1.75 1.75z"/></g><g><path d="m17.25 18.75h1.5v6.5h-1.5z"/></g><g><path d="m13 18.75h1.5v6.5h-1.5z"/></g><g><path d="m21.5 18.75h1.5v6.5h-1.5z"/></g><g><path d="m2 28.5h32v1.5h-32z"/></g></g></svg>