<svg enable-background="new 0 0 36 36" height="512" viewBox="0 0 36 36" width="512" xmlns="http://www.w3.org/2000/svg"><g id="bg"><g><path d="m13.411 35.083c6.298-2.859 12.105-1.559 15.14-2.936 3.035-1.378 8.617-6.016 2.28-19.978s-15.841-12.121-19.18-10.606c-15.632 7.095-9.395 38.582 1.76 33.52z" fill="#efefef"/></g></g><g id="color"><g><path d="m30 7.5c-.827 0-1.5-.673-1.5-1.5s.673-1.5 1.5-1.5 1.5.673 1.5 1.5-.673 1.5-1.5 1.5zm0-2c-.275 0-.5.225-.5.5s.225.5.5.5.5-.225.5-.5-.225-.5-.5-.5z" fill="#a4afc1"/></g><g><g><path d="m4.556 3.967h1v2h-1z" fill="#a4afc1" transform="matrix(.707 -.707 .707 .707 -2.031 5.03)"/></g><g><path d="m8.621 8.033h1v2h-1z" fill="#a4afc1" transform="matrix(.707 -.707 .707 .707 -3.716 9.095)"/></g><g><path d="m3.879 8.533h2v1h-2z" fill="#a4afc1" transform="matrix(.707 -.707 .707 .707 -4.958 6.096)"/></g><g><path d="m7.944 4.467h2v1h-2z" fill="#a4afc1" transform="matrix(.707 -.707 .707 .707 -.892 7.779)"/></g></g></g><g id="regular"><g><path d="m27.25 30h-18.5c-1.517 0-2.75-1.233-2.75-2.75v-4.5h1.5v4.5c0 .689.561 1.25 1.25 1.25h18.5c.689 0 1.25-.561 1.25-1.25v-4.5h1.5v4.5c0 1.517-1.233 2.75-2.75 2.75z"/></g><g><path d="m17.25 6.75h1.5v15.5h-1.5z"/></g><g><path d="m21.47 11.28-3.47-3.469-3.47 3.47-1.06-1.061 4-4c.293-.293.768-.293 1.061 0l4 4z"/></g></g></svg>