<svg enable-background="new 0 0 36 36" height="512" viewBox="0 0 36 36" width="512" xmlns="http://www.w3.org/2000/svg"><g id="bg"><g><path d="m1.063 15.31c3.655 5.872 3.123 11.798 4.885 14.628s7.088 7.76 20.105-.343 9.951-17.286 8.014-20.399c-9.072-14.574-39.477-4.285-33.004 6.114z" fill="#efefef"/></g></g><g id="color"><g><path d="m15.25 21.25c0 .55.45 1 1 1h10c.55 0 1-.45 1-1v-9.5c0-.55-.45-1-1-1h-11z" fill="#2fdf84"/></g><g><path d="m17.5 21.25v-10.5h-2.25v10.5c0 .55.45 1 1 1h2.25c-.55 0-1-.45-1-1z" fill="#00b871"/></g><g><path d="m19.25 6.75h-10.5v11.5h10.5c.552 0 1-.448 1-1v-9.5c0-.552-.448-1-1-1z" fill="#2fdf84"/></g><g><path d="m8.75 6.75h2.25v11.5h-2.25z" fill="#00b871"/></g><g><g><path d="m26.217 4.467h1v2h-1z" fill="#a4afc1" transform="matrix(.707 -.707 .707 .707 3.957 20.489)"/></g><g><path d="m30.283 8.533h1v2h-1z" fill="#a4afc1" transform="matrix(.707 -.707 .707 .707 2.273 24.554)"/></g><g><path d="m29.606 4.967h2v1h-2z" fill="#a4afc1" transform="matrix(.707 -.707 .707 .707 5.099 23.243)"/></g></g><g><path d="m30.783 25c-.827 0-1.5-.673-1.5-1.5s.673-1.5 1.5-1.5 1.5.673 1.5 1.5-.673 1.5-1.5 1.5zm0-2c-.275 0-.5.224-.5.5s.225.5.5.5.5-.224.5-.5-.224-.5-.5-.5z" fill="#a4afc1"/></g></g><g id="regular"><g><path d="m9.5 29.25h-1.5v-22.5c0-.414.336-.75.75-.75h10.5c.965 0 1.75.785 1.75 1.75v9.5c0 .965-.785 1.75-1.75 1.75h-9.75zm0-11.75h9.75c.138 0 .25-.112.25-.25v-9.5c0-.138-.112-.25-.25-.25h-9.75z"/></g><g><path d="m26.25 23h-10c-.965 0-1.75-.785-1.75-1.75v-3h1.5v3c0 .136.114.25.25.25h10c.136 0 .25-.114.25-.25v-9.5c0-.136-.114-.25-.25-.25h-3.5v-1.5h3.5c.965 0 1.75.785 1.75 1.75v9.5c0 .965-.785 1.75-1.75 1.75z"/></g></g></svg>